/* XPM */
static char *d937568e2fcd485edf63f3591c85abedGZyIoRvrfj54sGKm[] = {
/* columns rows colors chars-per-pixel */
"64 64 222 2 ",
"   c #1D1C3F",
".  c #211F3F",
"X  c #362B3E",
"o  c #42290F",
"O  c #4E393F",
"+  c #543C3E",
"@  c #583F3E",
"#  c #5C413D",
"$  c #774E3B",
"%  c #0A1341",
"&  c #0B1847",
"*  c #0B1C4B",
"=  c #111740",
"-  c #121A44",
";  c #1B1D42",
":  c #151D49",
">  c #201F40",
",  c #0C204F",
"<  c #14234F",
"1  c #1B234C",
"2  c #0C2453",
"3  c #0D2858",
"4  c #0D2B5B",
"5  c #142855",
"6  c #1C2E59",
"7  c #26274A",
"8  c #322940",
"9  c #39334B",
"0  c #242A52",
"q  c #282E55",
"w  c #28335A",
"e  c #2C335A",
"r  c #35395B",
"t  c #0E2F60",
"y  c #0F3364",
"u  c #0F3668",
"i  c #0F3869",
"p  c #103566",
"a  c #1D3865",
"s  c #103768",
"d  c #103A6C",
"f  c #113E71",
"g  c #283A63",
"h  c #353E63",
"j  c #453948",
"k  c #124275",
"l  c #1D4776",
"z  c #124679",
"x  c #134A7D",
"c  c #394569",
"v  c #304D76",
"b  c #584546",
"n  c #4F4A57",
"m  c #74584A",
"M  c #474866",
"N  c #454B6C",
"B  c #4F516E",
"V  c #445A6D",
"C  c #58556D",
"Z  c #474E70",
"A  c #485678",
"S  c #585A75",
"D  c #675B68",
"F  c #4B667F",
"G  c #6C6967",
"H  c #676478",
"J  c #796D76",
"K  c #945A27",
"L  c #875538",
"P  c #99633C",
"I  c #B16D2F",
"U  c #A86A3A",
"Y  c #D6792B",
"T  c #C27C3B",
"R  c #805E51",
"E  c #966D4F",
"W  c #866458",
"Q  c #B47944",
"!  c #876B63",
"~  c #937265",
"^  c #977669",
"/  c #96786D",
"(  c #758377",
")  c #CD8238",
"_  c #D98739",
"`  c #E7862E",
"'  c #E68C35",
"]  c #F08E32",
"[  c #EC9339",
"{  c #F49234",
"}  c #F99636",
"|  c #FC9937",
" . c #F29539",
".. c #F49A3C",
"X. c #FE9C39",
"o. c #FFA13B",
"O. c #A18159",
"+. c #98866D",
"@. c #A48679",
"#. c #B08971",
"$. c #C6884D",
"%. c #D18E4F",
"&. c #C69454",
"*. c #E69745",
"=. c #F89D44",
"-. c #FFA244",
";. c #FDA54D",
":. c #ECA157",
">. c #FDAA58",
",. c #D19765",
"<. c #FEB369",
"1. c #EAAA73",
"2. c #FEBB79",
"3. c #144E80",
"4. c #155385",
"5. c #1D5282",
"6. c #165789",
"7. c #165B8C",
"8. c #1A5B8C",
"9. c #175F90",
"0. c #265B86",
"q. c #176192",
"w. c #186495",
"e. c #196898",
"r. c #196C9B",
"t. c #1A709F",
"y. c #396889",
"u. c #236392",
"i. c #286997",
"p. c #306A96",
"a. c #2A739D",
"s. c #1B74A1",
"d. c #1C7BA7",
"f. c #2978A4",
"g. c #3C7BA4",
"h. c #465D82",
"j. c #446985",
"k. c #477390",
"l. c #6B6B81",
"z. c #787588",
"x. c #78788C",
"c. c #457CA3",
"v. c #837B87",
"b. c #1E85AE",
"n. c #1F87B0",
"m. c #3B87AE",
"M. c #2887B0",
"N. c #5A829D",
"B. c #6A8388",
"V. c #4986AC",
"C. c #498AAF",
"Z. c #4593B7",
"A. c #6E8DA6",
"S. c #8C848D",
"D. c #93868A",
"F. c #80908C",
"G. c #888695",
"H. c #968C94",
"J. c #98959C",
"K. c #A78E85",
"L. c #AE9488",
"P. c #B5988B",
"I. c #A9999A",
"U. c #BA9E90",
"Y. c #BBA196",
"T. c #8D93A0",
"R. c #9B98A3",
"E. c #A29CA6",
"W. c #8BA3B5",
"Q. c #A9A2AA",
"!. c #B0AAAD",
"~. c #B5ACB1",
"^. c #BBB1B4",
"/. c #BDB8BB",
"(. c #C6A99C",
"). c #F7BD85",
"_. c #E7B891",
"`. c #CCB3A6",
"'. c #CCB5AA",
"]. c #D2B7A8",
"[. c #D6BCAE",
"{. c #C4BABA",
"}. c #FFC589",
"|. c #FECB98",
" X c #C1C0BF",
".X c #DCC2B4",
"XX c #DCC7BB",
"oX c #FACCA3",
"OX c #FED3A9",
"+X c #ECCDB5",
"@X c #E1C6B8",
"#X c #E3CBBD",
"$X c #E8CEBF",
"%X c #F8D8B9",
"&X c #9EB2C1",
"*X c #C3BEC0",
"=X c #CCCBCC",
"-X c #D8CCC7",
";X c #DBD8D5",
":X c #E4CEC1",
">X c #E9CFC0",
",X c #E6D1C4",
"<X c #EAD3C5",
"1X c #EBD6C9",
"2X c #EBD9CD",
"3X c #F5D9C3",
"4X c #F2DCCE",
"5X c #E3D9D4",
"6X c #E8DCD5",
"7X c #F3DED1",
"8X c #FFE6CE",
"9X c #E8E3DD",
"0X c #F6E2D5",
"qX c #F4E5DB",
"wX c #FAE7D9",
"eX c #F9E6DA",
"rX c #FCEADE",
"tX c #E6E4E2",
"yX c #FFEDE1",
"uX c #FFF1E5",
"iX c #FFF4EA",
"pX c #FCFCFC",
/* pixels */
"% % % % % % % % % % % % % % % % % % % % % % % % % % % % % % % % % % % % % % % % % % % % % % % % % % % % % % % % % % % % % % % % ",
"% % % % % % % % % % % % % % % % % % % % % % % : M B e % % % % % % % % % % % % % % % % % % % % % % % % % % % % % % % % % % % % % ",
"% % % % % % % % % % % % % % % % % % % $ + % r H.G.x.D.z.& & & * * 2 3 2 % % % % % % % % % % % % % % % % % % % % % % % % % % % % ",
"% % % % % % % % % % % % % % % % %   U T   1 ^.q % & * Q.c 2 , 2 3 y s 4 2 & & % % % % % & % % % & % % % % % % % % % % % % % % % ",
"% % % % % % % % % % % % : % % % % U Y . % H S % % & & N v.3 2 2 3 4 y 4 4 2 2 * & * * & & % % % 2 & & % & % % % % % % % % % % % ",
"% % % % % % % % % % % H 5Xx.% % + X.@ % % ~.: % % & * w Q.3 3 3 3 y y 4 4 4 4 3 2 2 * * & * * * * & & & & % % % % % & % % % % % ",
"% % % % % B M % % % - {.,XXXr % T _ % % r R.% % % & * 6 J.3 3 3 u s y t 4 y y 3 3 3 2 , 2 4 3 2 2 , & & & % , % % & & % % % % % ",
"% % % % r yXrXz.% % 1 :X#X:XH.  ` P % % H S % % % * * w J.3 y y s k s y 4 4 y 4 3 3 2 3 4 u i y 3 3 2 , * & % % & & & % % % % % ",
"% % % % H 1X:X-Xr % 1 wXwXrX6Xb ` $ % % Q.: % % & * * c E.3 y s d x d y 3 3 4 4 3 4 3 y u d f d s 3 3 3 3 2 * * 2 * * & , % % % ",
"% % % % z.,X#X:XJ.% 1 iXyXyXrX,.X.O % 1 !.% % % & * 2 N x.3 t s s k f y y y u y 3 3 4 y u s d f s y y 4 t u u u u y 3 * & & % % ",
"% % % % H rXrXyX6XH ~.yXyXyXOXX.[ = % H S % % * * 3 u x.A 4 3 y u s d s u s y y 4 3 3 y u s d x d d d f x 4.3.7.x d 4 2 & & % % ",
"% % % % N iXyXyXyXyXrX3XoX:.` | # % : ^.: & & * 2 4 4 R.g 3 3 4 y s u u d u 4 4 3 4 3 y u s d k z k f f x 7.6.x d y 3 * & % % % ",
"% % % % e qXyXyXyXyX3X=.X.| ` oXh % J.B % & & * 2 2 w I.< , 2 4 u u f k u y 3 3 4 y 4 4 y d f k z z d f x 7.4.x u 4 2 * & % % % ",
"% % % % : =XyXyXyXyX7X1.<.oXwX0XS.C v.& & & < w 6 M L.D.< , 2 3 d i f k y 3 y 3 4 u s s u s d d f k k x 3.x k u y 4 2 * & % % % ",
"% % % % % Q.yXyXyXyXyXrXwX4X(.@.~ XX! 1 c h 6 & & c l.D.6 2 2 3 4 u s s y y s u u k k x 7.3.k k f d k k s d d y 4 3 , * & % % % ",
"% % % % % S uXyXyXyXyX7XY.^ ~ ~ @.[.(.z.& % % & & * 2 3 v g 2 2 4 y d d u d 4.3.4.q.q.r.w.7.x k s s s u 3 3 t 4 2 2 * * & % % % ",
"% % % % % q qXyXyXyXrX[.R ~ @.(.@X.XP.D & & & & * * 3 4 4 v a 4 u k k d d x q.w.r.s.s.s.w.4.k d y y y 4 3 2 3 2 * * & & % % % % ",
"% % % % % & /.yXyXyXrX@X@..X`.L.'.L.^ *.9 & * * 3 3 4 s s d y.l 4.q.x z k 6.w.r.r.r.s.s.8.4.k u y 4 4 3 3 * 2 2 & * & % % % % % ",
"% % % % % % l.uXyXyXyX4XU.~ ~ ~ '.P.$.X.) < 2 3 3 3 u D $.0.u.g.7.4.x k 4.7.r.r.r.w.r.7.4.k s 3 3 3 2 3 3 * & & % & % % % % % % ",
"% % % % % % q qXyXyXyXwX(.W ~ @.@.^ *.X.X.m b n c d V ..| y.w.g.8.3.4.4.7.r.s.r.w.9.q.7.z s p 3 4 3 * 2 * & % % % % % % % % % % ",
"% % % % % % & ^.yXyXyXrX$XW ~ @.~ ~ X.X.X.X.{ ] { _ *.X.o.j.q.a.u.7.q.q.r.t.r.q.7.7.q.9.3.k u 3 3 3 * * & % % % % % % % % % % % ",
"% % % % % % % H uXyXyXyX4XK.W @.~ O.X.X.X.X.} ] } X.X.X.o.k.w.a.i.9.4.4.7.q.7.7.7.7.8.u.0.0.l a 4 3 * * * & % % & % % % % % % % ",
"% % % % % % % 1 5XyXyXyXrX[.W (.]._.X.X.| X.X.} X.X.X.X.o.F 7.a.u.4.x x 3.6.9.9.i.C.V.p.u.0.v l h.v 6 * * * r H H l.c % % % % % ",
"% % % % % % % % J.yXyXyXyX1X(.(.@.$.X.2.|.>.X.X.X.X.X.X.o.j.7.i.u.3.3.3.4.6.w.C.Z.M.d.t.7.z s y t a A Z J S.{.z.M l.^.v.& % % % ",
"% % % % % % % % r yXyXyXyXwXU.~ / $.;.pXJ.tX<.X.X.<.%X|.o.j.9.p.w.6.7.6.4.q.C.Z.n.n.b.d.q.x d u s y 3 c I.L.r & % % - S.G.% % % ",
"% % % % % % % % - /.yXyXyXyX<XW @.$.X.8XH.iX|.| >.9XJ.iX:.p.r.g.7.7.9.7.4.g.Z.b.n.b.s.w.7.x d s y y 4 3 c D.: % % % % : {.e % % ",
"% % % % % % % % & S uXyXyXyXyX1X-X_.X.X.}.}...[ >.2XXX}.&.a.m.f.w.7.7.7.8.V.t.d.B.( q.7.7.k u u y 3 4 4 2 A < % % % % % H H % % ",
"% % % % % % % % % : -XyXyXyXyXyXyX4X>.X.} } ' o ' X.X.X.B.m.m.r.q.7.7.4.c.a.r.a.*.X.J q.6.k s s t 3 4 4 3 6 h & & & % % r Q.% % ",
"% % % % % % % % % % z.uXyXyXyXyXyX0X$X>.X.} X.) | { ..+.m.m.s.r.7.6.7.8.V.t.r.( o.X...$._ ) E n 3 3 3 5 r 1 A & & & % % e *X% % ",
"% % % % % % % % % % 1 5XyXyXyXyXyXyX7X<X).>.-.=.;.%.F.V.f.t.r.e.4.x 4.i.g.w.w.&.X.X.X.` { ] ]  .Q m Q [ ..b c < & & % % 0 I.% % ",
"% % % % % % % % % % % G.yXyXyXyXqXyXuX2X0X4X3X8XN.a.w.9.7.q.q.7.x x 4.a.V.r.j.| X.X.X.| ` | { X.X.X.X.X...j w c & % % % e {.% % ",
"% % % % % % % % % % % q qXyXyXyXR.k.A.A.W.yXyXqXi.q.q.q.q.7.6.4.4.4.4.i.m.s.+.X.;.X.X.X.] X.X.X.X.X.X.X.' - 6 c % % % % 0 ~.% % ",
"% % % % % % % % % % % & G.yXyXyXW.6.4.3.u.qXyX6Xu.q.r.r.q.7.7.7.7.7.4.u.c.r.&.OX;X4X;.X.X.X.X.X.X.X.X.X.U % e w % % % % 1 K.% % ",
"% % % % % % % % % & & , a 5XyXyXA.7.3.3.7.A.qX&X8.q.r.q.7.3.7.w.r.w.7.0.c.0.*.rXn tX|.| X.X.<.<.X.X.X.X.@ % N % % % % % % !.r % ",
"% % % % % % % & * * 3 3 y j.;X=X5.3.x 4.q.7.p.u.7.q.r.9.7.4.7.w.r.r.w.6.V.v ..oX!.pX2.X.X.%X X=XrX;.X.' - & N % % % % % % z.z.% ",
"% % % % & & * * 2 3 3 d d d l 5.x x 4.7.w.r.r.w.w.w.w.q.q.7.7.w.q.w.q.7.p.k.%.X.<.<.X.X.-.iXD =XpX}.X.P % e e % % % % % % 7 I.% ",
"% % % & & 2 2 3 3 y u f z z x 7.4.4.7.q.r.t.r.r.w.r.r.7.7.7.7.7.7.7.7.6.8.c.O.X.X.| K I X.}.=XpXuX>.| @ - Z % % % % % % % % E.Z ",
"% % * * * 2 2 3 y f k z 4.7.7.7.x 4.7.q.r.r.t.t.w.w.r.7.4.4.7.9.7.6.4.3.4.5.B.[ } | K I X.X.-.>.X.X._ - N : % % % % % % % % B G.",
"% % % & , 3 3 3 i x 9.9.9.r.w.q.7.7.w.r.s.s.t.d.s.r.t.r.4.3.4.7.7.w.7.7.3.k l P.X.} _ X.X.| } X.X. .9 S r = % % % % % % % % 7 D.",
"% % % & 2 3 u u d 3.r.d.s.s.r.7.9.7.7.w.r.r.r.r.t.s.t.w.4.3.x x 4.q.w.7.j.G.'.XX+X<.| X.X.| X.X.;.#.K.^ ~ ! ; % % % % % % % 1 R.",
"% % % & , 4 4 y k 4.r.b.n.b.b.r.7.7.q.q.w.t.r.r.r.r.w.7.x f d k x 4.N.{.>X$X@X1X$X<X+X).2.2.).oX2XU.~ ~ ~ ^ 9 % % % % % % % 0 E.",
"% % % & * 3 3 y k 7.r.d.b.b.b.d.q.7.w.7.7.w.t.s.r.w.7.x d s s s d T.$X$X$X@XwXyX0X1X[.>X$X<X$XXX1X,X~ ~ ^ @.n % % % % % % % B J ",
"% % % % & 2 3 y k 7.r.d.s.s.t.s.w.7.7.6.4.3.9.r.9.4.k s y 4 y p F <X$X$X@X2XyXyXyX0X2XyXwX$X:XrXyXrX[..X#X[.M % % % % % % : ^.r ",
"% % % % % & 2 3 u 3.q.r.s.s.e.7.6.4.x z z k z 4.x k u u 4 4 4 t A :X$X#X<XyXyXyXyX,XyX4X@X7XyXyXyXyXY./ ~ ~ 9 % % % % % - v.G.% ",
"% % % % % & * 3 y z q.r.r.w.7.x k s s d d d f k d u 3 u 4 3 3 3 3 g c G.yXyXyXyXwX1X7X@XwXyXyXyXyXyXP.~ ~ ^ 9 % % % % q ~.S.- % ",
"% % % % % & 2 3 4 d 7.7.4.x z f s y u s s s f k u 3 4 3 2 2 3 3 2 2 S rXyXyXyXyX,XwX@XwXyXyXyXyXyXyXP.~ ~ ~ / q q C R.Y.B % % % ",
"% & % % % & 3 k d k k k f k s 3 3 3 y y y y u s s y 4 3 & & * 2 * N 9XyXyXyXyXwX1X4X1XyXyXyXyXyXyXyXP.~ ~ ~ @.!.D.G.B % % % % % ",
"% % % % % * 3 4 d u y u u u 3 3 3 3 u y t t 4 4 4 4 4 2 & % & & h 5XyXyXyXyXyX,XwX0X#XwXrX0X2XrXyXrXL.^ @.U.J : % % % % % % % % ",
"% % % % % & * 2 3 4 3 4 y 4 3 2 4 y k s 3 4 4 3 3 3 3 * & % % h 5XyXyXyXyXyXwX1XyXyX0X<X<X7XyXyXyXrX.X@X.X(.n % % % % % % % % % ",
"% % % % % % * * 2 * * 3 4 3 3 3 t u 4 y 3 t 3 3 3 3 3 * & & w 5XyXyXyXyXyXyX,XrXyXyXyXyXyXyXyXyXyX,X/ ^ ~ ~ 9 % % % % % % % % % ",
"% % % % % % * 2 2 2 * , 2 2 4 3 4 3 2 4 4 4 2 2 2 2 , & % 0 -XyXyXyXyXyXyXwX1XyXyXyXyXyXyXyXyXyXyXY.~ ! G j % % % % % % % % % % ",
"% % % % % & * * & & & * , * 4 4 2 * * 2 4 4 2 , 2 * & % : ^.yXyXyXyXyXyXyX:XyXyXyXyXyXyXyXyXyXyX4XE m j > = % % % % % % % % % % ",
"% % % % & & * * * * 2 2 2 2 4 2 * & * 2 3 3 * * * & % & v.uXyXyXyXyXyXyX7X7XyXyXyXyXyXyXyXyXyXyX1.| o.o.[ I @ % % % % % % % % % ",
"% % % % % & 2 3 3 3 4 4 3 3 4 * & & * 3 4 3 * & % % % B :X#XyXyXyXyXyXrX,XyXyXyXyXyXyXyXyXyXyX3XY  . .| ` ` X.I X % % % % % % % ",
"% % % % % & 2 3 3 y y u d s 4 * 2 2 3 3 4 4 * & % % - /.XX<X:XyXyX-Xl.-XwXyXyXyXyXyXyXyXyXyXqXD X X 8 j L _ X.X. .L X ; = % % % ",
"% % % % % & 2 2 3 s f z 3.k u t 4 y u u y 3 & % % % q rXrX#X1X:XR.1 % r {.rXyXyXyXyXyXyXyXyXv.% % % % % % ; L ' | Y | _ T X % % ",
"% % % % % & * 2 3 u s s k d y y y s u u 3 * & % % % 1 -XyX6XI.M % % % % : {.yXyXyXyXyXyXyXQ.& % % % % % % % % ; + K U U $ ; % % ",
"% % % % % % % & * 2 3 3 4 3 4 4 4 t 3 3 3 & % % % % % 0 B r % % % % % 1 !.uXyXyXyXyXyXyX~.1 % % % % % % % % % % % % % % % % % % ",
"% % % % % % % % % & & & * * 2 3 4 4 3 2 & % % % % % % % % % % % % % - Q.uXyXyXyXyXyXyXQ.: % % % % % % % % % % % % % % % % % % % ",
"% % % % % % % % % % % % & * 2 3 4 2 * % % % % % % % % % % % % % % % z.<X#XyXyXyXyXrXG.: % % % % % % % % % % % % % % % % % % % % ",
"% % % % % % % % % % % % & & * 2 * & % % % % % % % % % % % % % % % 1 1XXX1XXXwXyX-XS % % % % % % % % % % % % % % % % % % % % % % ",
"% % % % % % % % % % % % & & & & & % % % % % % % % % % % % % % % % e iXrX#X1X'.G.1 % % % % % % % % % % % % % % % % % % % % % % % ",
"% % % % % % % % % % % % % % % % % % % % % % % % % % % % % % % % % - H./.Q.C 0 % % % % % % % % % % % % % % % % % % % % % % % % % ",
"% % % % % % % % % % % % % % % % % % % % % % % % % % % % % % % % % % % % % % % % % % % % % % % % % % % % % % % % % % % % % % % % "
};
