/* XPM */
static char *ddfb49185fc44c3df1c78b822fab95eek0LjwPXAoxRA80aA[] = {
/* columns rows colors chars-per-pixel */
"64 64 211 2 ",
"   c #070F3C",
".  c #080F3C",
"X  c #0A123F",
"o  c #18173E",
"O  c #2A233E",
"+  c #35293E",
"@  c #401C3F",
"#  c #47343D",
"$  c #543D3F",
"%  c #6D493A",
"&  c #76503D",
"*  c #0A1240",
"=  c #0D1946",
"-  c #0E1B4B",
";  c #111642",
":  c #1C1640",
">  c #121A45",
",  c #1B1D44",
"<  c #121D4C",
"1  c #1B1F4A",
"2  c #0F1F51",
"3  c #111F51",
"4  c #291941",
"5  c #3A1C41",
"6  c #0F214C",
"7  c #15224E",
"8  c #1E254A",
"9  c #1B234C",
"0  c #0F2151",
"q  c #132353",
"w  c #152757",
"e  c #1B2751",
"r  c #1B2B55",
"t  c #152A5B",
"y  c #1C2D58",
"u  c #1E325C",
"i  c #252749",
"p  c #24294D",
"a  c #372543",
"s  c #33314E",
"d  c #242C53",
"f  c #292D55",
"g  c #2C3355",
"h  c #22355D",
"j  c #2C3459",
"k  c #2D395C",
"l  c #303559",
"z  c #343C5D",
"x  c #1B3163",
"c  c #233561",
"v  c #243B64",
"b  c #2A3C63",
"n  c #253E6A",
"m  c #293C68",
"M  c #333C61",
"N  c #393E62",
"B  c #441F42",
"V  c #4C2646",
"C  c #502C4C",
"Z  c #662844",
"A  c #742E49",
"S  c #733851",
"D  c #39425A",
"F  c #2A4166",
"G  c #26416C",
"H  c #2A446C",
"J  c #2E496F",
"K  c #344164",
"L  c #3C4464",
"P  c #3A4668",
"I  c #324A6E",
"U  c #3C4A6B",
"Y  c #3F516F",
"T  c #2C4671",
"R  c #2E4B72",
"E  c #324C72",
"W  c #3F4F70",
"Q  c #345276",
"!  c #3D5374",
"~  c #355479",
"^  c #3A567B",
"/  c #37597C",
"(  c #3A5A7E",
")  c #554C50",
"_  c #524D55",
"`  c #765C4B",
"'  c #7B4357",
"]  c #726153",
"[  c #414666",
"{  c #424A66",
"}  c #434B6A",
"|  c #494968",
" . c #47526D",
".. c #4A526E",
"X. c #4E596F",
"o. c #494F70",
"O. c #455473",
"+. c #4D5571",
"@. c #4E5972",
"#. c #435878",
"$. c #455D7C",
"%. c #4B5D7D",
"&. c #505772",
"*. c #535B74",
"=. c #525D79",
"-. c #585F78",
";. c #634A63",
":. c #4D607D",
">. c #566176",
",. c #5A6377",
"<. c #57627A",
"1. c #5B647C",
"2. c #5E6A7C",
"3. c #6C6579",
"4. c #626B7E",
"5. c #7B747D",
"6. c #8C5B36",
"7. c #976336",
"8. c #AB7339",
"9. c #B57735",
"0. c #C17E36",
"q. c #8F2E45",
"w. c #883045",
"e. c #9C3446",
"r. c #A53647",
"t. c #8A6647",
"y. c #956E43",
"u. c #AA7741",
"i. c #C48438",
"p. c #EE952E",
"a. c #F69B2D",
"s. c #3D5E81",
"d. c #3E6182",
"f. c #445E81",
"g. c #416485",
"h. c #4C6484",
"j. c #486887",
"k. c #446789",
"l. c #46698A",
"z. c #496C8D",
"x. c #576985",
"c. c #5E6C81",
"v. c #4B708F",
"b. c #59728D",
"n. c #4B6F91",
"m. c #506C90",
"M. c #4D7393",
"N. c #517495",
"B. c #537796",
"V. c #5C7A95",
"C. c #547B9C",
"Z. c #636C82",
"A. c #696D86",
"S. c #657184",
"D. c #6A7486",
"F. c #6E7987",
"G. c #65738A",
"H. c #6B758A",
"J. c #6E798D",
"K. c #727187",
"L. c #70778D",
"P. c #717B8D",
"I. c #617993",
"U. c #6C7991",
"Y. c #747D91",
"T. c #787F94",
"R. c #58829F",
"E. c #74808F",
"W. c #6B8196",
"Q. c #6A879E",
"!. c #768193",
"~. c #7B8496",
"^. c #7D8699",
"/. c #758A9B",
"(. c #7E899A",
"). c #5682A1",
"_. c #6E92AA",
"`. c #7692A7",
"'. c #7D9CAF",
"]. c #7EA0B0",
"[. c #828C9D",
"{. c #86909F",
"}. c #88909F",
"|. c #858FA0",
" X c #8692A1",
".X c #8A95A4",
"XX c #8D99A6",
"oX c #8A97A8",
"OX c #829DAB",
"+X c #8F9AA9",
"@X c #919BA7",
"#X c #939DAB",
"$X c #859FB0",
"%X c #86A2AF",
"&X c #96A1AD",
"*X c #99A4AE",
"=X c #84A4B5",
"-X c #89A5B4",
";X c #8DA9B6",
":X c #86A7B9",
">X c #8DABB9",
",X c #97A3B1",
"<X c #99A5B1",
"1X c #9AA6B2",
"2X c #9AA6B3",
"3X c #9DA8B3",
"4X c #92AFBC",
"5X c #94B1BE",
"6X c #A0AAB4",
"7X c #97B4C1",
"8X c #98B4C2",
/* pixels */
"* * * * * * * * * * * * * * * * * * * * * * * * * * * * * * * * * * * * * * * * * * * * * * * * * * * * * * * * * * * * * * * * ",
"* * * * * * * * * * * * * * * * * * * * * * * * * * * * * * * * * * * * * * * * * * * * * * * * * * * * * * * * * * * * * * * * ",
"* * * * * * * * * * * * * * * * * * * * * * * * * * * * X i * * * * * * > * * * * * * * * * * * * * * * * * * * * * * * * * * * ",
"* * * * * * * * * * * * * * * * * * * * * * * * * * * X + 7.O * * * * X j ; * * * * * * * * * * * * * * * * * * * * * * * * * * ",
"* * * * * * * * * * * * * * * * * * X * * * * * * * * * o % ; * * * * * * * * * * * X * * * * * * * * * * * * * * * * * * * * * ",
"* * * * * * * * * * * * * * * * * * z 8 * * * * X * * * X , * * > * * X * * * * * l f * * * * * * * * * * * * * * * * * * * * * ",
"* * * * * * * * * * * * * * * * * * , ; * * * X * X * * = * = = *.8 X = X * * * * X X * * * * * * * * * * * * * * * * * * * * * ",
"* * * * * * * * * * * * * * * * * * * * * * = e = = * = = < 9 9 e > 7 X = * = * = * * * * * * * * * * * * * * * * * * * * * * * ",
"* * * * * * * * * * * * * * * * * * * * * X = > = p =.U.[..X+X#X#X@X.X[.J.+.9 = * * * = * * * * * * * * * * * * * * * * * * * * ",
"* * * * * * * * * * * * * * * * * * * = = - 1 } ~.3X1X1X1X1X1X1X1X1X1X1X1X3X1XJ.K 7 = = = * * * * * * * * * * * * * * * * * * * ",
"* * * * * * * * * * * * * * X X * = = = q +.D.XX1X1X1X1X1X1X1X1X1X1X1X1X1X1X1X1X.XS. .1 = = * * * * * * * * * * * * * * * * * * ",
"* * * * * * * * * * * * * * * * = = = k S.P.,X1X1X1X1X1X1X1X1X1X1X1X1X1X1X1X1X1X1X&XD.Z.d = = * * X * * * * * * * * * * * * * * ",
"* * * * * * * * * * * * * * = = - * } 2.P.,X1X1X1X1X1X1X1X1X1X1X1X1X1X1X1X1X1X1X1X1X,XP.4.P = = * = X * * * * * * * * * * * * * ",
"* * * * * * * * * * * * * = * = = *.4.J.1X1X1X1X1X1X,X+X{.^.!.!.!.!.(. X#X1X1X1X1X1X1X,XD.4.} * - * * 8 X * * * * * * * * * * * ",
"* * * * * * * * * * * * = = j * O.4.4.#X[.G.1X+XU.G.H.Y.[..X+X@X+XXX.X(.Y.H.G.Y.#X#XS. X.X2.S.P * q * = X * * * * * * * * * * * ",
"* * * * * * * * * X X = * q 7 P Z.2.2.<.Y.@...J.#X1X*X1X1X1X1X3X3X1X1X1X1X1X1XXXG...<.Y.1.2.2.S.z X 3 X = * * * * * * * * * * * ",
"* * * * * * * * * 9 = X - * c D.2.>.*.1.*.^.1X1X(.&X&X[.P.J.H.D.G.H.J.Y. X&X#X{.1X1XY.@.Z.&.1.2.Z.e X - X * * * * * * * * * * * ",
"* * * * * * * * * * X 0 X t *.2.2.,.L [.*X1X1X3X^.1.J.^.H.+.K z z L *.J.~.S.2.[.3X1X1X*X!.K 1.2.4...w . < * * * * * * * * * * * ",
"* * * * * * * * * X i * q 9 D.2.*.<.*X*X1X#XJ.Z.J.H.M =   X * * * * * . ; L J.J.Z.Y.#X1X1X#X*.>.2.H.> q * = * X X * * * * * * * ",
"* * * * * * * * X a % r * O.4.X.G.XX1X*X2.Z.G.P Q ( u X X X X X X X X X = h ( ! { J.2.Z.1X,X.X2.*.4.L X 0 X = 9 z * * * * * * * ",
"* * * * * * * X = X e = t Z.*.S.&X(.^.+.L.z . e I z.s.E F h u E J y h H E d.z.E 7 X { D...[.[.3X1.,.=.t A.7 = * * * * * * * * * ",
"* * * * * * * * = = = t = } 1.1X&X<.Z.} B 4 ; E b Q M.d.M.s.H Q E H g.M.g.M.E H I = 5 a +.c.Z.3X,X..P = q = - * * * * * * * * * ",
"* * * * * * = f < * q = K 1.&X1X*.D.S Z Z : 7 E 7 Q C.d.N.d.v < < G k.v.g.N.I 7 Q < : Z Z ' 4.-.1X#X,.d < q < > * * * * * * * * ",
"* * * * * * > N = - - t >.[.1XZ.@.C e.e.5 = H y c s.M.F ( g.G = = J k.( F N.^ u u F * B r.e.C &.P.3X~.@.t < 2 8 ; * * * * * * * ",
"* * * * * * * = = < 7 d oX&XXXY.z f V q.: y Q v T s.l.7 H y R < 7 ~ y H e v.( R c Q e 4 q.@ b k D.,X#XXX< < < $ + X * * * * * * ",
"* * * * * * * = q h m K 1X1XP.#Xe Q 1 A h n Q k.Q k.s.7 n 7 E 7 y H 7 n 7 k.s.~ k.E H j A 7 ^ 8 [.(.1X3Xj q s t.& O X * * * * * ",
"* * * * * * * < = w - j 1X1XJ.^.X g.z.#.h e ^ M.( M.^ > n e h y h r y n - g.M.( M.E 7 b $.z.E =  XZ.1X&X8 - w s , * X * * * * * ",
"* * * * * * = * q = g K G.&XP.*.= m.( e 7 v ( d.l.C.J < H R 7 7 7 e E H < ~ C.k.d.~ c 7 y d.$.X H.Z.3X*.} 8 - - = = X * * * * * ",
"* * * * * = * < = z H.U f ~.~.M k V.n c H ~ d.n.C.n.I 7 R Q ( H E ( R E 7 E M.C.l.s.~ G u G Q.9 *.J.Y.1 *.S.j < = * X * * * * * ",
"* * * * * X = * t } 4.<.} ,  Xf %.R T R s.M.( ( E I h = R v R ( ( H v H = m E E ( d.M.( R G ^ O.} ~.p [ 4.1.} - = = } X * * * * ",
"* * * * * = * < * z G.U j z  Xd O.^ / k.N.d.6 ) u.} p g h ^ e E H e ^ y g z , u._ 7 l.M.g.~ ( O.P [.j p &.,.z = = = X X * * * * ",
"* * * * * X 7 A.x g !.Z.j ..[.d /.v.k.z./ y = i.7.L O i.d M.~ r y ( k.g i.5.X 9.8.* h ( M.k.V.W.P ~.{ g Y.Z.M q = = * * * * * * ",
"* * * * * = X < * g Z.2.z *.~.j x.V.k.Q G c h u.7.* # a.) I n.I E M.H t.p.O * 9.t.c h H Q l.Q.$...G.&.l J.*.g - = * * * * * * * ",
"* * * * * * = X t g 2.*.{ >.H.P h.'.R G R g.Q _ 0.o 8.p._ h k.M.M.k.h ] a.6.o 9.k ( d.T G ~ ].! 1.-.>.[ 1.*.k - = = * * * * * * ",
"* * * * * = 9 y = 9 *.1.l *.2.2.^ ! G T ( k.M.H D ` y.) u K d.C.M.d.K h ) y.` D E N.d.( H H ! ! Y. .>.d D.{ > < = = * * * * * * ",
"* * * * * * = = q = 7 Z.L *.&.|.7 m G / Q ^ M.N.k.R R Q e G.g.M.n.k.x.h Q E E l.C.z.^ ~ Q G c e {...*.P 1.< < - = = * * * * * * ",
"* * * * * * = - - q 3 e l *.&.+XI N.n ( ( e ( N.C.C.M./ k `.g.z.l.d./.b ( M.N.C.N.~ e ( ~ G m.U ~.1...l 0 q t - = * X * * * * * ",
"* * * * * * = = < < q p L +.Z.P.G.N.n Q s.v h g.M.k.s.Q %.Q.( d.s.s.`.I / ( k.M.s.y H s.R G V.U.Z.Z.L *.e q q - = = X * * X * * ",
"* * * * * * * * - < *.G.<.j S.2. XQ.~ G T G y e h Q z.( %XG.| ! ! | W.`.( j.E h 7 u H T G f.b.#XZ.Z.g J.e 3 - = = * * * * * * * ",
"* * * * * * * = < J.1XP.-.N Z.J.!.=.h.#.H n n v m -X>X-X8X3.A e.e.A K.8X=X>X'.b v n G H f.:.G.Y.D.S.z S.q - q = = * * * * * * * ",
"* * * * * * * X Z.1X&X<.*.[ +.D.Z.XX..z W h u v b.5X;X>X7X5Xh.r.w.V.5X8X>X>X4X%.n x c Y z *..X2.L.K } +.= q = = * * * * * * * * ",
"* * * * * * * j !.1XP.*.2.p } Y.!.G.(.W.x.h b E I.-X-X4X8X7X'.S ;.>X7X8X;X;X%X%.Q u h G.U.[.Z.(.Z...g *.w * 3 * * * * * * * * * ",
"* * * * * * * Z.!.!.4.4.2.z } z (.!.P.b.'.V.P `.%.>X-X7X8X7X7XQ.`.5X7X7X7XOX5XO.OXI I.'.S.Y.(.~.f *.} M = q * = * * * * * * * * ",
"* * * * * * X [.1XJ.*.} g 1.[ X Z..XY.L h.P 9 `.I.$X7X7X5X4X;X/./.;X4X7X8X8XOX/.W.9 U %.P Y..X<.X ..2.1 t * = X * * * * * * * * ",
"* * * * * * ; #X1XF.D.d t l } 8 *.Y.1XJ.U k H k Q.h.>X7X4XOXOX4X;XOXOX5X8X=X$.Q.d H z } !.1XZ.&.d N j t * - * * * * * * * * * * ",
"* * * * * * > ,X1X4.Z.q   } L ..<.{ @X1X^.+.1.M h j.C._.:X:X=X_._.=X:X=X_.N.j.d U 1. .[.1X|.+.>.&.l z X q X = * * * * * * * * * ",
"* * * * * * > ,X,X2.Z.. < [  .&.Z.1.Z.1X[.XXZ.*.G.@.$.z.N.R.).).).R.).C.z.O.=.S.*.G.+X X3X1.1.Z.+.} K 7 * * * * * * * * * * * * ",
"* * * * * * = Z.[.2.Z.< * ..&.-.*.P.+.2.{.&X*X&XZ.x.!.!.H.S.c.c.c.c.Z.L.~.T.-.D.*X1X&X[.*.*.!. .*.&.U = e * * * * * * * * * * * ",
"* * * * * * X !.[.2.>.} = ,...*.2.+.P.Z.-.G..X3X3X1X.XP.P.J.J.L.J.J.P.P.P.@X3X3X3X[.Z.-.D.J...2.&.+.+.= } ; * * * * * * * * * * ",
"* * * * * * X =.1X X2.Z.> { 2.P.<.Z.<.Z.^.J.L } P.#X3X[.,X3X3X3X3X3X1X#X[.3X@XJ.-.Z.F.^.1.,.S.*.J.2.z X * X * * * * * * * * * * ",
"* * * * * * * d &X,XD.4.<.> @.P..XZ.4.D.[ *.<.4.L g o.J.L.Y.Y.Y.Y.Y.Y.J.H.Z.2.P.(.P.J.Z.L.4.Z.#XD...; * * * * * * * * * * * * * ",
"* * * * * * * X G.1X.X2.2.1.M } Y.[...<.4.4.#X,X@X{  .#X3X&X#X@X@X@X&X3X#X XY.c.A.^.[.Z.<.[.1XY.L = * * * * * * * * * * * * * * ",
"* * * * * * * * > [.+XJ.S.Z.Z.Z.} 1.D.J. XL.1X3X3X1.Z.*.Z.G.H.J.J.G.G.Z.Z.L.[.#X|.Z.Z.^.3X&XZ.p X * * # O * * * * * * * * * * * ",
"* * * * * * * * X 1 J.XX1X&X[.E.Z.[.#X1X1X[.#X6X#XJ.J.1.!.^.[.[.[.[.^.Y.G.Z.Z.L.[.#X3X3X!.z > g X * * # + * * * * * * * * * * * ",
"* * * * * * * * * * > P.1X1X1X1X^.#X1X1X1XJ.Z.1.} ~.2.&X.X[.^.^.^.^.[..X&X6X6X3X&X.XG.g * * * X X * * X * * * * * * * * * * * * ",
"* * * * * * * * * * * X j Z..X&XJ.#X[.Z.z > X M } +.J.^. X@X@X@X#X@X@X}.^.L.1.} j > * * X X * * * * * * * * * * * * * * * * * * ",
"* * * * * * * * * * * X X X X = ; = X * * l z X = * = * = = > < > q X < . = X = X = X ; 1 * * * * * * * * * * * * * * * * * * * ",
"* * * * * * * * * * * * * * * * M > X * X ; ; * X * X = * = = X = X = X = X * o X X X X X * * * * * * * * * * * * * * * * * * * ",
"* * * * * * * * * * * * * * * * * X X * * X X * * * * * * X X * * = Z.* * * : & O X X * * * * * * * * * * * * * * * * * * * * * ",
"* * * * * * * * * * * * * * * * * * * * * * * * * * > ; * * * * * * . * * * X o X * * * * * * * * * * * * * * * * * * * * * * * ",
"* * * * * * * * * * * * * * * * * * * * * * * * * * f 1 * * * * * * * * * * X X * * * * * * * * * * * * * * * * * * * * * * * * ",
"* * * * * * * * * * * * * * * * * * * * * * * * * * X * * * * * * * * * * * * * * * * * * * * * * * * * * * * * * * * * * * * * ",
"* * * * * * * * * * * * * * * * * * * * * * * * * * * * * * * * * * * * * * * * * * * * * * * * * * * * * * * * * * * * * * * * ",
"* * * * * * * * * * * * * * * * * * * * * * * * * * * * * * * * * * * * * * * * * * * * * * * * * * * * * * * * * * * * * * * * "
};
