/* XPM */
static char *a36f500fe5f14885faeaa6aa6a211344cvhL2OczzhJgZIdu[] = {
/* columns rows colors chars-per-pixel */
"64 64 208 2 ",
"   c #000000",
".  c #0C0703",
"X  c #000906",
"o  c #00060A",
"O  c #000C0B",
"+  c #0C0C0C",
"@  c #120B04",
"#  c #140F0A",
"$  c #00120D",
"%  c #000E12",
"&  c #000E1A",
"*  c #011513",
"=  c #011A14",
"-  c #01141B",
";  c #011C1B",
":  c #151515",
">  c #161916",
",  c #191919",
"<  c #281B0E",
"1  c #01231B",
"2  c #01271C",
"3  c #3A240D",
"4  c #030C25",
"5  c #011226",
"6  c #011C23",
"7  c #011B2B",
"8  c #080E34",
"9  c #011C34",
"0  c #16193D",
"q  c #211F3F",
"w  c #012422",
"e  c #012C22",
"r  c #01232B",
"t  c #012C2C",
"y  c #182522",
"u  c #023326",
"i  c #02342B",
"p  c #023B2E",
"a  c #18332C",
"s  c #012335",
"d  c #012738",
"f  c #023D32",
"g  c #02383C",
"h  c #232323",
"j  c #2C2C2C",
"k  c #33293E",
"l  c #333333",
"z  c #3C3C3C",
"x  c #472B10",
"c  c #4F3012",
"v  c #553413",
"b  c #653E17",
"n  c #02402E",
"m  c #024434",
"M  c #024937",
"N  c #02453B",
"B  c #024C3B",
"V  c #03543E",
"C  c #6C4118",
"Z  c #784A1B",
"A  c #5F4037",
"S  c #724D3D",
"D  c #0A1240",
"F  c #021C47",
"G  c #161C40",
"H  c #022A43",
"J  c #022D4A",
"K  c #023A42",
"L  c #02354B",
"P  c #032E51",
"I  c #033657",
"U  c #033B55",
"Y  c #30365A",
"T  c #343A5C",
"R  c #043E65",
"E  c #443F55",
"W  c #034D42",
"Q  c #03474A",
"!  c #035345",
"~  c #03564A",
"^  c #035B4B",
"/  c #034D53",
"(  c #03465A",
")  c #035E53",
"_  c #035858",
"`  c #03644C",
"'  c #046758",
"]  c #047257",
"[  c #044867",
"{  c #045765",
"}  c #045A6B",
"|  c #044C77",
" . c #045475",
".. c #055C7B",
"X. c #046765",
"o. c #046C63",
"O. c #04636C",
"+. c #047465",
"@. c #04756C",
"#. c #047A6B",
"$. c #04617D",
"%. c #046B78",
"&. c #057878",
"*. c #444444",
"=. c #4C4C4C",
"-. c #545454",
";. c #5B5B5B",
":. c #6A6A6A",
">. c #757575",
",. c #7F7871",
"<. c #787878",
"1. c #83511D",
"2. c #87593C",
"3. c #915C33",
"4. c #9B6123",
"5. c #9A633A",
"6. c #A86928",
"7. c #B36F29",
"8. c #A2683C",
"9. c #B97536",
"0. c #C57C2E",
"q. c #C77D39",
"w. c #058669",
"e. c #058375",
"r. c #05887C",
"t. c #06947A",
"y. c #CF812F",
"u. c #DB8832",
"i. c #E28D34",
"p. c #EC9237",
"a. c #F29536",
"s. c #FF9B36",
"d. c #FF9C39",
"f. c #FFA03A",
"g. c #8C8175",
"h. c #A88664",
"j. c #C98F52",
"k. c #FFA244",
"l. c #FFA64B",
"z. c #F3A857",
"x. c #FFB569",
"c. c #FFBA74",
"v. c #FBBE7E",
"b. c #055B85",
"n. c #056686",
"m. c #057A88",
"M. c #066A95",
"N. c #066798",
"B. c #067593",
"V. c #06779A",
"C. c #076DA2",
"Z. c #0775A5",
"A. c #077BA4",
"S. c #0776B1",
"D. c #058887",
"F. c #069786",
"G. c #068A98",
"H. c #069796",
"J. c #07A889",
"K. c #07A798",
"L. c #0785A4",
"P. c #0888AB",
"I. c #0799A1",
"U. c #0887B3",
"Y. c #0896B5",
"T. c #099CBC",
"R. c #07A4A8",
"E. c #08B8A8",
"W. c #08AAB7",
"Q. c #09A3BE",
"!. c #08B2B6",
"~. c #08C89E",
"^. c #0AC6AF",
"/. c #0A9ECA",
"(. c #0B9CDA",
"). c #0AAAC4",
"_. c #0AA7C8",
"`. c #08B4C1",
"'. c #0BB6CC",
"]. c #0AA8D4",
"[. c #0CBFD9",
"{. c #0CC9D5",
"}. c #8D8D8D",
"|. c #979797",
" X c #A4A4A4",
".X c #AAAAAA",
"XX c #B3B3B3",
"oX c #BDBDBD",
"OX c #FFC184",
"+X c #F9C692",
"@X c #DBCBBB",
"#X c #FFCFA0",
"$X c #FDD3A9",
"%X c #FBD9B8",
"&X c #BDC9C7",
"*X c #C7C7C7",
"=X c #CCCCCC",
"-X c #D4D3D3",
";X c #DADADA",
":X c #FFE3C8",
">X c #FFE9D3",
",X c #FFEDDC",
"<X c #E2E2E2",
"1X c #EDEDED",
"2X c #FFF6EE",
"3X c #F5F5F5",
"4X c #FFFBF7",
"5X c #FFFFFF",
/* pixels */
"- 7 s 7 d s 9 9 7 9 6 o                                                                     o ; t K ( } m.G.%.{ ( K * o X   o o ",
"7 d J H s d H J H H s - % - *                                                         w 6 O O - w K } %.m.W.R.D.} Q 6 - & & % & ",
"P ( [ [ U P J J J J I 7 6 t W o                                                       t r * % * 6 K { m.G.I.`.W.m.Q t r 7 7 7 d ",
"[  .n...[ [ I U L I R J r ; w o                                                       o o o O O - t / %.D.H.!.H.&.{ g L U U R [ ",
"N.Z.L.B.n.n... .| | | P 7 % & o                                                           o O O * r / &.D.H.E.E.r.@._ $.b. .N.b.",
"N.U.T.P.A.B.n.M.N.C.[ H 7 5 F 5                                                           o O o w w i ) &.K.E.E.K.F.D.B.N.N.S.C.",
"A.Y.).Y.P.P.V.V.M.C. .U s 5 9 4                                                             O X * w u N r.^.E.J.J.H.G.m.$.U.(.U.",
"Q.)._.T.T.'.T.A.M.M. . .H & o                                                               o o * ; M w.J.^.E.F.F.H.I.B.A./.]./.",
"Y._.).Q.'.{.{.T.A.V.} [ d - o X                                                             X o = t ! w.w.J.~.J.F.D.G.P._._.Y.Q.",
"P.U.P.U.).).'.).Y.$.I J U - % o                                                               o * 1 i ` ~ w.J.t.#.m.G.Y.[.).L.P.",
"V.V.M.U._.].[.Q.L. .U  .( r % X X                                                               O * e W ! w.w.' X.G.H.G.{.'.L.G.",
"B.n.N.U.].(./.P.L.B...} g ; O X X                                                                 O = u B ` ` B ! ) X.O.!.{.W.L.",
"n.n.$.M.Z.N.S.Z.U.W.I.O.g w O o X                                                                 o X 1 u u V m m N N o.R.I.G.n.",
"{ } } M.[ U ....%.I.H.O./ w O X                                                                     X $ = 1 2 n f N ! e.H.&.O.{ ",
"&.O.} b.} _ O.O.%.%.&.X./ g 1 O o                                                                     X O = = e p i f ] D.D.R.&.",
"@.V.[ L Q / ' e.D.F.E.F.r.@._ t * o                                                                     X e 2 * * 1 e N e.E.K.&.",
"o.&.Q g g _ r.#.F.K.K.K.e.@.' X.t * X                                                                   X p 1 O = u B ! t.K.e.+.",
"` ' ) ! ~ ^ W ) +.t.F.r.+.+.X.&./ g O                                                                   X X $ * = p ^ ] w.] ` ^ ",
"B ) ^ #.@.W f N ~ o.e.@.+.#.o.{ _ w o                                                                     X X $ 2 B M V V ` M m ",
"u B W e.` B i f W ) o.) ' +.@._ Q * X                                                                       X X 2 p u u u m m p ",
"u u f m m p f p p ! W ~ ^ ^ o.W w o                                                                           o e e e e u u u u ",
"= = e w i i f t e u e u p f f e $                                                                         X O = e 2 1 2 e e m 1 ",
"O $ * 1 e e u ; 1 1 = * = = = $ X                                                                           X $ = 2 2 e 1 = 1 * ",
"$ $ 2 u 2 w w ; w 1 * O $ $ O o X                                                                             X = = * = * $ = * ",
"$ * ` m 1 = = O O O O $ 1 O X O                                                                         X     X O $ $ $ O $ = * ",
"X O 2 2 $ $ $ O X X X O $ O O X                                                                                 X O $ $ O O O X ",
"  X $ $ X X   X X X O $ O X X                                                                                     O $ O O O X   ",
"o X X > , , , , , , , , , , , , , , , , , , , , , +                         : , , , , , , , , , , , , , , , , , y a y y > $ $ O ",
"    <.3X4X4X4X4X4X4X4X4X4X4X4X4X4X4X4X4X4X4X4X4X4X1X*.                    ;.=XoXoXoXoXoXoXoXoXoXoXoXoXoXoXoXoXoX&X&X&XoX=X-.  X ",
"    *X5X5X5X5X5X5X5X5X5X5X5X5X5X5X5X5X5X5X5X5X5X5X3X}.                     Xj                                   O = O   =. X    ",
"    *X5X5X5X5X5X5X5X5X5X5X5X5X5X5X5X5X5X5X5X5X5X5X3X}.                    .Xh                                           *. X    ",
"    *X5X5X5X5X5X5X5X5X5X5X5X.X1X5X5X5X5X5X5X5X5X5X1X}.                    .Xh                                           j  X    ",
"    *X5X5X5X5X5X5X5X5X5X5X;X;.1X5X5X5X5X5X5X5X5X5X1X}.                    .Xh                   , , , h h +             j  X    ",
"    *X5X5X5X5X5X5X5X5X.Xh z l h XX5X5X5X5X5X5X5X5X1X X                    .Xh                 -.;Xj <.>.3Xz             j XX    ",
"    *X5X5X5X5X5X5X5X4Xj       : ;X5X5X5X5X5X5X5X5X3X.X                    .Xh               =.-Xz   + >.;X,             *.oX    ",
"    *X5X5X5X5X5X5X5X1Xh       , 1X5X5X5X5X5X5X5X5X3X.X                    .Xh             *.1X<.z j ;.-Xj +             *.oX    ",
"    *X5X5X5X5X5X5X5X5X*.        <.5X5X5X5X5X5X5X5X3X.X                    .Xh             :.<X<X3XoX|.XX:.z             *.oX    ",
"    *X5X5X5X5X5X5X5X5XXX      X .X5X5X5X5X5X5X5X5X3X.X                    .Xh       < 4.0.0.Z . .XoXh l z :             *.oX    ",
"    *X5X5X5X5X5X5X5X5X4X.XXXXXXX5X5X5X5X5X5X5X5X5X3X.X                    .Xh     x a.d.d.d.d.C z *.                    *.oX    ",
"    *X5X5X5X5X5X5X5X5X5X5X5X5X5X5X5X5X5X5X5X5X5X5X3X.X                    .Xh   . i.d.s.p.a.d.Z                         *.oX    ",
"    *X5X5X5X5X5X5X5X5X5X5X5X5X5X5X5X5X5X5X5X5X5X5X3X.X                    .Xh   v d.d.7.# < v .                         *.oX    ",
"    =X5X5X5X5X5X5X5X5X5X5X5X5X5X5X5X5X5X5X5X5X2Xc.$X.X                  v z.g.<.h.d.f.h.<.<.<.<.<.<.<.<.<.<.<.<.<.<.<.<.|.oX    ",
"    ;X5X5X5X5X5X5X5X5X5X5X5X5X5X5X5X5X5X5X5X5X:Xf.d.j..             . 1.d.d.%X5X,Xk.d.+X5X5X5X5X5X5X5X5X5X5X5X5X5X5X5X5X5XXX    ",
"    ;X5X5X5X5X5X5X5X5X5X5X5X5X5X5X5X5X5X5X5X5X>Xf.d.d.7.3 c b b v 3 6.d.d.d.:X5X5Xc.d.k.>X5X5X5X5X5X5X5X5X5X5X5X5X5X5X5X5X X    ",
"    =X5X5X5X5X5X5X5X5X5X5X5X5X5X5X5X5X5X5X5X5X2Xl.d.d.d.s.d.d.d.d.s.d.d.d.k.2X5X5X,Xk.d.x.4X5X5X5X5X5X5X5X5X5X5X5X5X5X5X5X|.    ",
"    -.;X1X1X1X1X1X1X1X1X5X5X5X5X4X1X1X1X1X1X1X1Xv.d.d.d.d.d.d.d.d.d.d.d.d.j.-X1X1X1X+Xd.d.%X1X4X5X5X5X5X1X1X1X1X1X1X1X1X<X*.    ",
"      : : : : : : : : z 4X5X5X5X<X, : : : : : > 6.d.d.d.d.d.d.d.d.d.d.d.d.6.+ : : : < i.d.9.j 3X5X5X5X3Xh : : : : : : : :       ",
"                      }.5X5X5X5X4X-.          . y.d.s.s.s.d.d.d.d.s.s.s.d.u..         6.d.u.,.5X5X5X5X5X:.                      ",
"                    : ;X5X5X5X5X5XXX          @ p.s.c.%XOXs.d.d.s.v.$Xc.s.a.@         C d.a.@X5X5X5X5X5X=X                      ",
"                  , }.5X5X5X5X5X5X3X:.> C Z x @ p.d.k.#X>Xl.d.d.l.,X#Xl.d.a.@ x Z C @ C d.d.,X5X5X5X5X5X5X<.:                   ",
"4 8 8 8 8 8 8 8 8 G T Y Y Y Y Y Y Y T q.d.d.d.8.2.8.8.8.8.8.8.8.8.8.8.8.8.5.3.s.d.d.q.A 8.5.E Y Y Y Y Y Y T 0 8 8 8 8 8 8 8 8 8 ",
"8 D D D D D D D D D D D D D D D D D 0 a.d.d.d.p.q D D D D D D D D D D D D 0 a.d.d.d.d.k D D D D D D D D D D D D D D D D D D D D ",
"8 D D D D D D D D D D D D D D D D D D S 2.9.5.S D D D D D D D D D D D D D D S 5.q.2.S D D D D D D D D D D D D D D D D D D D D D ",
"8 D D D D D D D D D D D D D D D D D D D D D D D D D D D D D D D D D D D D D D D D D D D D D D D D D D D D D D D D D D D D D D D ",
"8 D D D D D D D D D D D D D D D D D D D D D D D D D D D D D D D D D D D D D D D D D D D D D D D D D D D D D D D D D D D D D D D ",
"8 D D D D D D D D D D D D D D D D D D D D D D D D D D D D D D D D D D D D D D D D D D D D D D D D D D D D D D D D D D D D D D D ",
"8 D D D D D D D D D D D D D D D D D D D D D D D D D D D D D D D D D D D D D D D D D D D D D D D D D D D D D D D D D D D D D D D ",
"8 D D D D D D D D D D D D D D D D D D D D D D D D D D D D D D D D D D D D D D D D D D D D D D D D D D D D D D D D D D D D D D D ",
"8 D D D D D D D D D D D D D D D D D D D D D D D D D D D D D D D D D D D D D D D D D D D D D D D D D D D D D D D D D D D D D D D ",
"8 D D D D D D D D D D D D D D D D D D D D D D D D D D D D D D D D D D D D D D D D D D D D D D D D D D D D D D D D D D D D D D D ",
"8 D D D D D D D D D D D D D D D D D D D D D D D D D D D D D D D D D D D D D D D D D D D D D D D D D D D D D D D D D D D D D D D ",
"8 D D D D D D D D D D D D D D D D D D D D D D D D D D D D D D D D D D D D D D D D D D D D D D D D D D D D D D D D D D D D D D D ",
"8 D D D D D D D D D D D D D D D D D D D D D D D D D D D D D D D D D D D D D D D D D D D D D D D D D D D D D D D D D D D D D D D ",
"8 D D D D D D D D D D D D D D D D D D D D D D D D D D D D D D D D D D D D D D D D D D D D D D D D D D D D D D D D D D D D D D D "
};
