/* XPM */
static char *dce2f245291d40fb84f7d45862227c7cvDBGTWNPsGdhk71J[] = {
/* columns rows colors chars-per-pixel */
"64 64 233 2 ",
"   c #080F3C",
".  c #07133E",
"X  c #0A113F",
"o  c #12143E",
"O  c #221E3E",
"+  c #31282A",
"@  c #3A2C2D",
"#  c #2C233E",
"$  c #3F2F3F",
"%  c #3E3334",
"&  c #46312F",
"*  c #4F332F",
"=  c #462F30",
"-  c #433334",
";  c #4A3639",
":  c #543733",
">  c #543B36",
",  c #543D3C",
"<  c #5B3E3A",
"1  c #633D37",
"2  c #5B413E",
"3  c #63443C",
"4  c #69463B",
"5  c #794B3D",
"6  c #7A503E",
"7  c #0A1240",
"8  c #0D1846",
"9  c #0E1B4B",
"0  c #111642",
"q  c #131A45",
"w  c #1B1B42",
"e  c #131D4B",
"r  c #191F49",
"t  c #0F1F51",
"y  c #1E2347",
"u  c #15204C",
"i  c #1B234C",
"p  c #0F2152",
"a  c #122354",
"s  c #1B2955",
"d  c #132659",
"f  c #152A5C",
"g  c #272444",
"h  c #21254B",
"j  c #242A4E",
"k  c #322B49",
"l  c #32314C",
"z  c #202751",
"x  c #252C52",
"c  c #292F54",
"v  c #212D59",
"b  c #2A3255",
"n  c #28345A",
"m  c #2D355A",
"M  c #363959",
"N  c #333A5C",
"B  c #162C61",
"V  c #343D61",
"C  c #3A3F63",
"Z  c #493C44",
"A  c #4D3B4D",
"S  c #39415B",
"D  c #384467",
"F  c #3C4464",
"G  c #3F4966",
"H  c #3F4969",
"J  c #314873",
"K  c #5B4847",
"L  c #48495C",
"P  c #584C57",
"I  c #58575C",
"U  c #654A44",
"Y  c #654A47",
"T  c #6A4C4B",
"R  c #734C43",
"E  c #764D48",
"W  c #68524B",
"Q  c #7A5648",
"!  c #624A53",
"~  c #695658",
"^  c #7B5654",
"/  c #785A56",
"(  c #796259",
")  c #404766",
"_  c #434B64",
"`  c #444C6A",
"'  c #47506B",
"]  c #4B526D",
"[  c #4F5A6F",
"{  c #575861",
"}  c #5D5D6B",
"|  c #484D70",
" . c #4C5571",
".. c #4F5973",
"X. c #515773",
"o. c #535C74",
"O. c #555E78",
"+. c #585F79",
"@. c #645C67",
"#. c #785D66",
"$. c #615F73",
"%. c #566177",
"&. c #5A6376",
"*. c #576179",
"=. c #5C647C",
"-. c #5E697C",
";. c #7A6769",
":. c #676879",
">. c #616B7E",
",. c #736A76",
"<. c #81523F",
"1. c #9E6737",
"2. c #875448",
"3. c #825B4A",
"4. c #8D5B4D",
"5. c #925B4B",
"6. c #985A48",
"7. c #855A54",
"8. c #965F59",
"9. c #A85A52",
"0. c #8D634B",
"q. c #8B6448",
"w. c #95654A",
"e. c #9A634C",
"r. c #8C6454",
"t. c #8A665A",
"y. c #936453",
"u. c #9A6B53",
"i. c #986856",
"p. c #956C5C",
"a. c #9D6C5C",
"s. c #9D765C",
"d. c #A3654E",
"f. c #A36B53",
"g. c #AB6D55",
"h. c #A4675B",
"j. c #AA6C5C",
"k. c #A7765A",
"l. c #B5755C",
"z. c #826A64",
"x. c #886A67",
"c. c #936C65",
"v. c #8B716A",
"b. c #997667",
"n. c #9D7C6B",
"m. c #846C74",
"M. c #8A7372",
"N. c #977A73",
"B. c #AB6C63",
"V. c #A86A64",
"C. c #B36D6C",
"Z. c #A67566",
"A. c #AD7265",
"S. c #A97A63",
"D. c #A47B6B",
"F. c #AC7E6A",
"G. c #BA7B65",
"H. c #AC7B73",
"J. c #A87976",
"K. c #B77D74",
"L. c #C37D65",
"P. c #9F826F",
"I. c #A9826C",
"U. c #B4836B",
"Y. c #BA8668",
"T. c #A98578",
"R. c #B38375",
"E. c #B98978",
"W. c #B8927A",
"Q. c #C6836A",
"!. c #C38574",
"~. c #C38D71",
"^. c #C98C79",
"/. c #C5937C",
"(. c #C89278",
"). c #5E6780",
"_. c #5F6980",
"`. c #646D83",
"'. c #666E88",
"]. c #686F88",
"[. c #667184",
"{. c #6A7286",
"}. c #687389",
"|. c #6B748A",
" X c #6E798C",
".X c #767785",
"XX c #727B8D",
"oX c #6F7A91",
"OX c #737C91",
"+X c #7A7D90",
"@X c #977F8A",
"#X c #A47F81",
"$X c #768192",
"%X c #798394",
"&X c #7C8897",
"*X c #7D8699",
"=X c #7E8A9A",
"-X c #988282",
";X c #838C9D",
":X c #86919F",
">X c #AA8783",
",X c #B58C86",
"<X c #AE928E",
"1X c #B89383",
"2X c #B99592",
"3X c #858FA2",
"4X c #8693A2",
"5X c #8A94A3",
"6X c #8E99A6",
"7X c #8E9AA9",
"8X c #919BA7",
"9X c #929DAB",
"0X c #95A1AD",
"qX c #99A5AE",
"wX c #97A3B0",
"eX c #99A5B1",
"rX c #9BA5B2",
"tX c #9AA6B2",
"yX c #9DA8B2",
"uX c #A0AAB3",
"iX c #C68D81",
"pX c #C49384",
"aX c #C79689",
"sX c #CC9A8B",
"dX c #C19A93",
"fX c #CD9D93",
"gX c #D09992",
"hX c #CEA195",
"jX c #CAA59B",
"kX c #D2A395",
"lX c #D1A49B",
"zX c #C9BAA8",
"xX c #CEC2B3",
/* pixels */
"7 7 7 7 7 7 7 7 7 7 7 7 7 7 7 7 7 7 7 7 7 7 7 7 7 7 7 7 X X X 7 7 7 7 X X X X 7 7 7 7 7 7 7 7 7 7 7 7 7 7 7 7 7 7 7 7 7 7 7 7 7 ",
"7 7 7 7 7 7 7 7 7 7 7 7 7 7 7 7 7 7 7 7 7 7 7 7 7 7 X X X g 7 7 X 7 7 X q q X X 7 7 7 X 7 7 7 7 7 7 7 7 7 7 7 7 7 7 7 7 7 7 7 7 ",
"7 7 7 7 7 7 7 7 7 7 7 7 7 7 7 7 7 X X 7 X 7 7 7 7 7 X o ; 1.# X 7 7 7 X i u 7 X 7 X X X X 7 7 7 7 7 7 7 7 7 7 7 7 7 7 7 7 7 7 7 ",
"7 7 7 7 7 7 7 7 7 7 7 7 7 7 7 7 X X X X X X 7 7 7 7 X 7 o 4 7 X X X X X X X X X X X X X X 7 7 7 7 7 7 7 7 7 7 7 7 7 7 7 7 7 7 7 ",
"7 7 7 7 7 7 7 7 7 7 7 7 7 7 7 7 X X ] X 7 X X X X X X X X w 7 7 0 7 X X X X X X X 7 X.X 7 7 7 7 7 7 7 7 7 7 7 7 7 7 7 7 7 7 7 7 ",
"7 7 7 7 7 7 7 7 7 7 7 7 7 7 7 7 X X j X X X X X 7 X 7 7 7 7 7 8 ` b X 7 7 7 X 7 X X 0 X X 7 7 7 7 7 7 7 7 7 7 7 7 7 7 7 7 7 7 7 ",
"7 7 7 7 7 7 7 7 7 7 7 7 7 7 7 7 X X 7 X 7 7 q r 7 9 7 8 8 e e e r e u 7 9 7 8 7 8 X 7 X X X 7 7 7 7 7 7 7 7 7 7 7 7 7 7 7 7 7 7 ",
"7 7 7 7 7 7 7 7 7 7 7 7 7 7 X X X X X X 7 X e q e i ` =. X*X;X5X5X;X=XOX=.` z e X 8 X 7 X X X X X 7 7 7 7 7 7 7 7 7 7 7 7 7 7 7 ",
"7 7 7 7 7 7 7 7 7 7 7 7 7 7 7 X X 7 X 8 X 9 0 ` $X0XeXeXeXeXeXeXeXeXeXeXeXeX0X*X` 0 9 X 8 X 7 X X X 7 7 7 7 7 7 7 7 7 7 7 7 7 7 ",
"7 7 7 7 7 7 7 7 7 7 7 7 7 X 7 X 7 7 9 7 f `  X5XeXeXeXeXeXeXeXeXeXeXeXeXeXeXeXeX5X X` v X 9 7 7 X X X X 7 7 7 7 7 7 7 7 7 7 7 7 ",
"7 7 7 7 7 7 7 7 7 7 7 7 7 X X 7 7 9 7 D -.$X0XeXeXeXeXeXeXeXeXeXeXeXeXeXeXeXeXeXeX0X$X>.F X 9 X 7 X X X 7 7 7 7 7 7 7 7 7 7 7 7 ",
"7 7 7 7 7 7 7 7 7 7 7 X X X 8 7 9 7  .-.%XeXeXeXeXeXeXeXeXeXeXeXeXeXeXeXeXeXeXeXeXeXeX&X>.X.7 9 X 7 X X 7 X 7 7 7 7 7 7 7 7 7 7 ",
"7 7 7 7 7 7 7 7 7 7 7 X 7 7 7 9 q *.-.$XeXeXeXeXeXeXeXeX0X9X7X6X6X6X9X0XeXeXeXeXeXeXeXeX*X-.=.q e 8 8 X q X X 7 7 7 7 7 7 7 7 7 ",
"7 7 7 7 7 7 7 7 7 X X 7 7 0 9 q *.-.[.wX9X9XeXeX6X X'.'.|.OXOX$X$XXXXX|.}.'. X6XyXeX9X9XwX{.-.=.q 9 8 7 i X X 7 7 7 7 7 7 7 7 7 ",
"7 7 7 7 7 7 7 X X X X 7 7 D 8 ..-.-.*X'.).X. X*.oX6XqXeXeXeXeXeXeXeXeXeXeXeX6XOX*. Xo.=.'.&X-.>.O.X 9 7 7 X X 7 X 7 7 7 7 7 7 7 ",
"7 7 7 7 7 7 7 X q 7 7 8 9 8 H [.-.o.o.'.X.=.;XyX5XqXeXeX9X5X=X%X%X=X4X9XeXeXqX4XyX4X=...[.O.o.-.`.` 8 9 8 7 7 X X 7 7 7 7 7 7 7 ",
"7 7 7 7 7 7 7 X q 7 8 9 9 s {.-.-.G o.`.6XeXeXeX6X:X[.'. X X|. X X|. XoX'.'.;X6XeXeXeX9X[.o.G >.-.}.v 9 9 8 7 7 X 7 7 7 7 7 7 7 ",
"7 7 7 7 7 7 7 X 7 7 8 9 9  .-.-.%.` 6XqXqXeX9X|.=.OX;X.X;.x.n.T.,X>X@X,.:.*X$X=.|.9XeXeXeX7X' %.-.-.X.9 9 8 8 7 X X X X 7 7 7 7 ",
"7 7 7 7 7 7 7 X w 3 u a u `.-.o.=.qXqXqX5X`.`.XX,.x.F.E.~.(./.sXhXlXlXlXlX#Xm..X%X`.`.4XeXeXeX`...-.[.i e 9 8 7 7 q 7 X X 7 7 7 ",
"7 7 7 7 7 7 X 7 0 K r d N [.[ [.=X7X9X=.`.`.@.v.I.U.U.Y.~.~.(.aXfXfXhXfXlXfXpX/.J.,.{.`.=.8X9X=X|.] `.V a V q 7 r b 7 7 7 7 7 7 ",
"7 7 7 7 7 X 7 7 9 7 t 9 ` o.`.eX9X%X'  X_ ~ T.R.U.U.U.Y.~.(./.aXsXlXlXfXfXhXsX/.pXpX<X@.XX' OX9XyX'...' 9  .8 9 7 7 7 X 7 7 7 7 ",
"7 7 7 7 7 X X 8 8 9 9 e N  .eX0X_.=.' S } z.I.I.F.U.Y.~.(./.aXhXsXfXfXfXlXlXfXsXpXpXdX-X} ' =.=.0XeXo.N q 9 e 9 8 7 X X X 7 7 7 ",
"7 7 7 7 X 7 '.7 a 8 f n -.6XeX`.=.c X L @.;.D.S.I.U.R.R.R.E.aXfXfXsXaXdXdX2X2X2XpXpX1XN.:.i j =.=.eX9X>.m f 9 a 8 7 X X 7 7 7 7 ",
"7 7 7 7 X 7 0 8 7 a 8 ..$XeX;X) c X X { { ( n.D.b.( K K Y 7.t.H.E.E.H.t.z.P P @.;.>X,XM.:.j X j G =XyX%X%.9 a 8 h O 7 X X 7 7 7 ",
"7 7 7 7 X X 8 7 d s u 5X7XyX=.=.X X X I { ( n.b.W K Y K K Y Y 4.B.h.4.R T Y Y ~ ~ ~ >XM.:.b 7 X *.=.eX9X6Xe 9 x 4 4 g X X 7 7 7 ",
"7 7 7 7 X 8 7 a q J z wXeX4X*X' X X 0 I I ( n.( ( c.Z.p.R 3 4 2.f.U.y.R 3 R p.H.T.c.M.M.$.j 7 X G =X;XeXqXn f y W 3 g X X 7 7 7 ",
"7 7 7 X 7 X 9 7 f 7 i 6XeX|.0Xj X X 7 I I z.n.t.p.r.y.c.^ > < 6 l.~.u.3 , T t.N.c.n.c.M.} h 7 7 i 0X|.yX6Xi 8 d y g X X X 7 7 7 ",
"7 7 7 X X 8 7 a 8 i ` F eX'.6XX X X X I I v.b.r.Q W ; - , 2 < 6 l.L.g.7.2 ; - Z ~ c.D.N.} j 7 7 X 4X'.yX` ` j 8 a 7 8 X X X 7 7 ",
"7 7 7 X 7 7 9 8 x }.=.q '.}.%XX X X X I I n.s.3.W Y Y T ^ ^ 3.5.L.Q.l.j.7.R ^ ;./ t.D.T.} h X X    X|.}.r O.}.m 9 9 7 7 X X 7 7 ",
"7 7 7 X X 9 7 d G -.-.` c =.}.X X X 0 P ~ P.s.a.r.3.Q Q 2.y.e.d.Q.^.G.l.E.a.7.7.p.F.U.,X@.@.7 X X =.'.z ` >.&.` a 7 8 F 7 X 7 7 ",
"7 7 7 X 7 7 9 8 m O.O.c m }._.X X X / z.~ I.S.k.k.S.S.G.Y.g.e.g.L.^.Q.G.!.iX^.iXsXpXW.1X;.8.g X X *.XXb c X.&.V 8 9 7 7 X X 7 7 ",
"7 7 7 X X 9 +Xd m =.*Xb G '.`.X X w 7.c.( D.S.U.~.(.^.^.G.f.f.G.!.gX^.Q.G.K.iXgXlXkX/.1Xv.B.A X X *.|.) N OX>.V d 7 9 X X X 7 7 ",
"7 7 7 X 7 . e 7 c %.$Xm ] =. XX X g 8.S.( n.S.Y.~.~.!.K.j.g.d.g.G.!.G.G.!.B.A.aXgXsXaXW.N.!.A X X `.`.] N XX%.b 8 9 7 7 X 7 7 7 ",
"7 7 7 X X 9 7 d b ' -.G o...;X  X k h.a./ b.k.Y.Y.l.j.5.2.5 : 4 2.6.4 1 2.B.2.h.E.^./.W.Z.iXk X X %XO.X.) >.[ m a 7 9 X X 7 7 7 ",
"7 7 7 X 7 i v 7 u ` {.j X.' 6X0 X w 8.4.r.s.k.k.g.5.6 5.6 3 < < 4 1 & : E A.V.E i.U.E.W.H.J.7 X X 5X' o.c }.' q 8 9 7 7 X 7 7 7 ",
"7 7 7 X X 9 7 d 8 a `.N ] ] 5Xb X X ! 4.i.s.k.f.4.2 R E > & @ @ & - ; Z Y 7.7.T Y h.U.W.iX#.X X j 7X' X.m '.u 8 d 8 9 X X 7 7 7 ",
"7 7 7 X 7 7 9 8 B 8 s C ` =.|...X X g p.y.k.f.e.3 - , > - @ + + @ @ % - , Y K Z Z r.I.W.1Xl 7 X ' XX%.' V s 8 f 8 9 X 7 X 7 7 7 ",
"7 7 7 X X 8 7 a X f 8 ' N >.X.=X8 X X / u.s.u.w.> % - > : * & = < < & * < , ; % ; 7.F.W.<X0 7 7 %XO.>.S ' e f 8 p 7 8 X X 7 7 7 ",
"7 7 7 X 7 7 9 7 f i ` {.x -.`.4Xn X X A k.u.u.w.4 ; = @ : 6 <.2.p.r.p.r.3.= - K Y p.D.W.m.7 7 x 5X).-.c [.i 9 f 8 8 7 7 X 7 7 7 ",
"7 7 7 X X 7 X 9 m 5X%X|.i =. X[.|.X X X Z l u.w.u.3.E : 3 s.W.jXxXzXxXjXT.E c.H.p.k.D.P 0 7 X `.}.XX-.u }.r d 8 e X 7 X 7 7 7 7 ",
"7 7 7 X X X 8 b 9XeX*X=.=.] [.[.4Xb X X X 0 r.w.w.u.u.5.5.6.j.A.K.H.,XC.B.A.R.R.Z.Z.n.j X 7 c 5X'.[. .=.).a 8 a 7 8 X X 7 7 7 7 ",
"7 7 7 7 X 7 7 }.eX9X>.' F x  XXX`.:Xq X X X W w.w.u.e.e.5.6.6.9.9.V.V.h.B.K.E.H.D.Z.x.7 X q =X'.XXXXc N  .9 d 8 9 7 7 7 7 7 7 7 ",
"7 7 7 7 7 7 D XX9X X>. .X.` N *X%X|.[.X X X k y.q.w.5.e.e.6.2.5 R E 7.i.A.K.R.T.D.b.P X X `.OXOX%XN ' ' ` d 8 9 7 7 X 7 7 7 7 7 ",
"7 7 7 7 X   |.0X`.>.{.c }.` 0 =.;XOX`.i X X X Q 0.0.a.e.d.d.6.4.2.7.8.B.K.E.R.>Xn.z.w 7 b `.|.;X`.7 ` `.u 9 9 7 8 X X 7 7 7 7 7 ",
"7 7 7 7 X   4XeX;XO.) 9 O.) r c $X9X'.H y X X K 0.q.y.i.f.g.g.j.B.B.H.K.K.R.>XT.b.M X j G =.9X%Xb q ` =.9 a 8 9 7 X 7 7 7 7 7 7 ",
"7 7 7 7 X X 9XeX X>.V d i x ` ] ' ;XwX|._ F 0 K q.q.3.0.i.g.j.B.A.H.K.K.H.J.T.N.b.L F _ [.wX6X' X.G c z a 9 8 7 7 X X 7 7 7 7 7 ",
"7 7 7 7 7 7 wXeX[.>.z 9 b G +.' >.' eXeX4X` -.} Q Q Q 3.0.r.i.a.Z.H.H.J.J.N.v.P } [.` =XqXeX .>.' =.F N 9 9 7 7 X X 7 7 7 7 7 7 ",
"7 7 7 7 X X 4XwX>.`.z e b ' ] >.`.' =X0X$X0X[.%.|.:.I K Y Y R E Q 7.^ ~ ~ @.>.|.=.'.0X*X9X;X' `.`.' ' m 9 8 7 7 X 7 7 7 7 7 7 7 ",
"7 7 7 7 X   '.{.&.o.b 8 F ' %.X.=.XX] =.;XyXeX0X%X'.`.`.}.{.{..X.X{.{.}.'.`.'.%X9XeXyX:X=.]  X`.] O.' H 8 H 7 7 X 7 7 7 7 7 7 7 ",
"7 7 7 7 X   }.wXXX=.=.8 S =.` `.O. .%X{.=.).5XyXeXeXyX;X3X*XXXXXoXOX%X;X;XyXyXeXeX6X`.=.[.%XX.X.`.` =.G 7 x 7 X X 7 7 7 7 7 7 7 ",
"7 7 7 7 X 7 D eX9X>.[.N i =.XX'.>.`.O.|.XX=.m ) }.;X9X3XeXyXyXyXyXyXyXyX:X8X;XOX=.=.XX%X|.+.>.>.`.XX=.j 7 7 X X 7 7 7 7 7 7 7 7 ",
"7 7 7 7 X X q 5XeX$X-. Xc N >.5X*XO.{.O.F =.}.}.) N | |.`.'.'.'.'.'.`.`.'.|.}. X;X*X`.}.{.{.O.%X6X-.N 7 X X X X 7 7 7 7 7 7 7 7 ",
"7 7 7 7 7 X X  .eX0X[.[.O. .N =.;X$X) `.>.XXeXeX*X'  .6XyXyXyXyXyXyXyXyX9X;X*X|.=.oX5XXX=.`.0X9X`.b X X 7 7 X X X 7 7 7 7 7 7 7 ",
"7 7 7 7 7 X X 7 oX7XXX[.|.>.[.O. .>.|.%X5XXXyXeX5X'.=.=.'.].}.|.|.].].'.}.oX;X9X5X|.=.|.8XyX5X] q 7 X 0 ; # 7 X X 7 7 7 7 7 7 7 ",
"7 7 7 7 7 7 X X 7 =.5XeXeX6X%X X|.7XeXeXeX%XyXyX*X;X'.`.%X;X;X;X;X;X;X%X|.`.`.].OX6X0XyX9X=.c i u X X o ; # 7 7 X 7 7 7 7 7 7 7 ",
"7 7 7 7 7 7 X X 7 7 _.0XeXeXeX9X%XeXeXeXqX>.`.+.` =X=.9X5X=X%X%X%X%X=X5X9XyXuXyXqX0X;X+.r 7 X X X X X 7 X 7 7 7 X 7 7 7 7 7 7 7 ",
"7 7 7 7 7 7 7 7 X X X c `.4X0X=X;X9X;X`.m 8 i ` o.=.=X5X6X9X9X9X9X9X9X6X5X;XXX=.` h 8 X 7 X X X X X X X X X X X 7 7 7 7 7 7 7 7 ",
"7 7 7 7 7 7 7 7 7 X X X X 0 i r i u 0 7 X ' r 7 8 7 e r i s v v z v s i q u 7 8 X 7 X 7 u 7 X X 7 7 7 7 7 7 7 7 7 7 7 7 7 7 7 7 ",
"7 7 7 7 7 7 7 7 7 X X X X X X r V X X X X y 7 X X 7 X 7 7 7 7 7 7 7 8 X 7 X 7 X X X X X X X X 7 7 7 7 7 7 7 7 7 7 7 7 7 7 7 7 7 ",
"7 7 7 7 7 7 7 7 7 7 7 7 7 X X 7 7 X X X X X X X X X X 7 7 X X 7 X 7 =.  7 7 7 $ ; X X X X X 7 7 7 7 7 7 7 7 7 7 7 7 7 7 7 7 7 7 ",
"7 7 7 7 7 7 7 7 7 7 7 7 7 7 7 X X X X X X X X X X X   7 7 X 7 7 7 7 q X 7 7 7 O # 7 7 X 7 7 7 7 7 7 7 7 7 7 7 7 7 7 7 7 7 7 7 7 ",
"7 7 7 7 7 7 7 7 7 7 7 7 7 7 7 7 7 7 7 7 7 7 7 7 X X V u 7 7 7 7 7 7 7 7 7 7 7 X X 7 7 X 7 7 7 7 7 7 7 7 7 7 7 7 7 7 7 7 7 7 7 7 ",
"7 7 7 7 7 7 7 7 7 7 7 7 7 7 7 7 7 7 7 7 7 7 7 7 X X X X 7 X X X X X X X X X X X X X X X 7 7 7 7 7 7 7 7 7 7 7 7 7 7 7 7 7 7 7 7 ",
"7 7 7 7 7 7 7 7 7 7 7 7 7 7 7 7 7 7 7 7 7 7 7 7 X X X X 7 X 7 7 7 7 7 7 7 7 7 7 7 7 7 7 7 7 7 7 7 7 7 7 7 7 7 7 7 7 7 7 7 7 7 7 "
};
