/* XPM */
static char *_b5a8368417e4846b3f64896e440063eZ8h2h75ZhDwpyzfu[] = {
/* columns rows colors chars-per-pixel */
"64 64 232 2 ",
"   c #2A261D",
".  c #1F1D23",
"X  c #1F1F2E",
"o  c #0A113F",
"O  c #191A3E",
"+  c #292727",
"@  c #362C24",
"#  c #38342B",
"$  c #28273C",
"%  c #2A243E",
"&  c #392B3D",
"*  c #3D3A37",
"=  c #443331",
"-  c #483738",
";  c #553A38",
":  c #47473B",
">  c #5A453C",
",  c #69483C",
"<  c #774D3D",
"1  c #66513B",
"2  c #7E533C",
"3  c #0A1240",
"4  c #0D1846",
"5  c #0E1B4A",
"6  c #101643",
"7  c #131A45",
"8  c #1A1E42",
"9  c #141E4A",
"0  c #181F49",
"q  c #0F1F51",
"w  c #0F204E",
"e  c #1E2042",
"r  c #15204D",
"t  c #1B234C",
"y  c #132252",
"u  c #1C2652",
"i  c #1E2953",
"p  c #1F2E5A",
"a  c #25274A",
"s  c #353044",
"d  c #232B53",
"f  c #252C54",
"g  c #2A3155",
"h  c #2B335A",
"j  c #28345A",
"k  c #333A5D",
"l  c #36395C",
"z  c #2D3A60",
"x  c #333D62",
"c  c #3A3F61",
"v  c #4F3D48",
"b  c #3C405E",
"n  c #3C4363",
"m  c #3B4668",
"M  c #4A4946",
"N  c #574747",
"B  c #575446",
"V  c #48445A",
"C  c #534554",
"Z  c #5A5959",
"A  c #674B45",
"S  c #6B4A44",
"D  c #764C45",
"F  c #66564B",
"G  c #785949",
"H  c #685757",
"J  c #765856",
"K  c #696454",
"L  c #6D6654",
"P  c #766959",
"I  c #414564",
"U  c #474765",
"Y  c #424A66",
"T  c #434C6A",
"R  c #4A4E6B",
"E  c #524E68",
"W  c #46516D",
"Q  c #4B536E",
"!  c #57576A",
"~  c #4C5571",
"^  c #4F5973",
"/  c #535C74",
"(  c #595B76",
")  c #5C5B75",
"_  c #685B69",
"`  c #576178",
"'  c #5B647B",
"]  c #5E697C",
"[  c #6A6468",
"{  c #7D7666",
"}  c #686677",
"|  c #626A7D",
" . c #756A73",
".. c #8F5A2E",
"X. c #86573B",
"o. c #97613B",
"O. c #A66B3B",
"+. c #BA753A",
"@. c #C87D3A",
"#. c #855A47",
"$. c #925A4A",
"%. c #865A55",
"&. c #87634B",
"*. c #96654B",
"=. c #886757",
"-. c #996955",
";. c #897158",
":. c #9C7759",
">. c #A66A57",
",. c #A8755C",
"<. c #B27851",
"1. c #835B63",
"2. c #896B64",
"3. c #926D63",
"4. c #887967",
"5. c #967668",
"6. c #8A7876",
"7. c #957973",
"8. c #A36B62",
"9. c #A67A67",
"0. c #AC756F",
"q. c #B67967",
"w. c #B37C73",
"e. c #CA7F40",
"r. c #C17F67",
"t. c #D9852D",
"y. c #DB8737",
"u. c #E38733",
"i. c #EC933A",
"p. c #F69536",
"a. c #FE9A35",
"s. c #FE9C3A",
"d. c #FFA03F",
"f. c #BE804C",
"g. c #888576",
"h. c #998977",
"j. c #A4836B",
"k. c #A7876B",
"l. c #B7856C",
"z. c #A88877",
"x. c #B78777",
"c. c #AB937A",
"v. c #B09174",
"b. c #B3957C",
"n. c #BA957B",
"m. c #D18E52",
"M. c #FEA245",
"N. c #FBAA59",
"B. c #C68B79",
"V. c #C3947A",
"C. c #FAAE64",
"Z. c #F5B371",
"A. c #5E6780",
"S. c #636C82",
"D. c #6C6B81",
"F. c #736F85",
"G. c #667184",
"H. c #6A7386",
"J. c #67738A",
"K. c #6C758A",
"L. c #6E788C",
"P. c #727485",
"I. c #7A7685",
"U. c #727B8E",
"Y. c #757D92",
"T. c #827B88",
"R. c #927C82",
"E. c #778193",
"W. c #7A8496",
"Q. c #7D8799",
"!. c #7E8999",
"~. c #86848A",
"^. c #8C8893",
"/. c #828C9C",
"(. c #928F92",
"). c #9A969C",
"_. c #AA8B84",
"`. c #B88881",
"'. c #AA9586",
"]. c #B69886",
"[. c #BC9D85",
"{. c #B99E8B",
"}. c #B6A289",
"|. c #BCA38C",
" X c #A6A597",
".X c #BDA796",
"XX c #868FA1",
"oX c #8691A1",
"OX c #8A95A3",
"+X c #8E99A8",
"@X c #909AA7",
"#X c #929DAA",
"$X c #A29BA5",
"%X c #96A2AE",
"&X c #99A4AF",
"*X c #97A2B1",
"=X c #99A5B1",
"-X c #9DA9B3",
";X c #B1ABAD",
":X c #C48E83",
">X c #C59A88",
",X c #CB9E94",
"<X c #C7A285",
"1X c #C2A38D",
"2X c #C4A898",
"3X c #D1AD98",
"4X c #EDB480",
"5X c #C8AFA2",
"6X c #CAB6A9",
"7X c #D5BCAE",
"8X c #C6B9B8",
"9X c #FEC68B",
"0X c #F8C899",
"qX c #DAC6B8",
"wX c #F2CCA8",
"eX c #E7CCBB",
"rX c #F4D4B7",
"tX c #C7BFC0",
"yX c #CFCBCA",
"uX c #D9CBC6",
"iX c #EAD3C5",
"pX c #E5D5CC",
"aX c #EBD7CB",
"sX c #F1DBCD",
"dX c #F2DFD2",
"fX c #FFE4CA",
"gX c #F5E1D4",
"hX c #F4E4DB",
"jX c #F8E6DA",
"kX c #FBEADE",
"lX c #FFEDE1",
"zX c #FFF1E4",
/* pixels */
"3 3 3 3 3 3 3 3 3 3 3 3 3 3 3 3 3 3 3 3 3 3 3 3 3 3 3 3 3 o 3 3 3 3 3 3 3 3 3 3 3 3 o o o o 3 o o o o 3 3 3 3 3 3 3 3 3 3 3 3 3 ",
"3 3 3 3 3 3 3 3 3 3 3 3 3 3 3 3 3 3 3 3 3 3 3 3 3 3 3 3 3 o 3 3 3 3 3 3 3 o o 3 3 3 o O O o o o 0 3 o o o 3 3 3 3 3 3 3 3 3 3 3 ",
"3 3 3 3 3 3 3 3 3 3 3 3 3 3 % 3 I T.I.t 3 3 3 3 3 3 3 3 o 3 3 3 3 3 3 o o o o o o o o & & o o 3 o o 3 o o o 3 3 3 3 3 3 3 3 3 3 ",
"3 3 3 3 3 3 3 3 3 3 3 3 O o.> I } 3 7 ^.3 3 3 3 3 3 3 3 3 o 3 3 3 3 3 o o h o o 3 o o 3 3 7 k 3 3 3 o 3 a o 3 3 3 3 3 3 3 3 3 3 ",
"3 3 3 3 3 3 3 3 7 Q 3 3 X...3 T.7 3 3 } t 3 3 3 3 3 3 3 3 3 3 3 3 3 3 o o o 3 3 9 4 0 t d g f d r 4 3 3 3 3 o o o 3 3 3 3 3 3 3 ",
"3 3 3 3 a a 3 3 } aX) % y.% f D.3 3 3 ) l 3 3 3 3 3 3 3 o 3 3 3 3 o o o o 3 3 4 k K.oX#X%X=X=X*X+XQ.~ r 4 3 3 o o o 3 3 3 3 3 3 ",
"3 3 3 3 8XuXg 3 $XaX8X, +.3 R n 3 3 3 ) g 3 3 3 3 3 3 3 3 3 3 3 3 o o 3 3 4 z G.@X=X=X=X=X=X=X=X=X=X%X!.W 0 4 o o o 3 3 3 3 3 3 ",
"3 3 3 3 qXiX).3 ;XkXhXm.O.3 F.t 3 3 3 } 0 3 3 3 3 3 3 3 o o 3 3 o o 3 4 4 Q U.*X=X=X=X=X=X=X=X=X=X=X=X=XOX' d 4 3 3 o o 3 3 3 3 ",
"3 3 3 3 uXkXhXF.pXlXrXM.> 0 I.3 3 3 3 I.7 3 3 3 3 3 3 3 o o o o o 3 7 4 ~ H.#X*X*XoX!.Q.Q.Q.Q.Q.Q./.@X-X@X/.] f 4 3 7 3 o 3 3 3 ",
"3 3 3 3 8XlXlXlXwXC.u.m.3 } l 3 3 3 3 I.3 3 3 3 3 3 3 3 o 3 o o 3 4 u ~ ' G.S.( Y.OX&X=X=X%X%X=X=X%X!.K./ H.] ] t 4 3 o o 3 3 3 ",
"3 3 3 3 ).lXlXkX4XC.0XpXU I.3 6 0 0  .} 3 3 3 3 3 3 3 3 o 3 o 4 4 4 z | / ' W.*X%XW.W.U.| | S.K.W.!.oX-XOXG.Q | ` 4 4 3 3 3 3 3 ",
"3 3 3 3 ) lXlXlXkXiX2X7.2X .g 0 4 6 b ! 6 3 3 3 3 3 3 3 o o o 8 8 4 ' ' S.&X@X!.S.|  .L ;.{..X'.6.I.H.U.OX=XQ./ S.h 4 4 3 3 o o ",
"3 3 3 3 t lXlXlXaX3.5.].7X.Xa 3 3 3 3 4 g 7 3 3 3 3 3 o 3 o 3 a t d | L.oXY.| V * B { ;.k..X.X.X.X{.z.2.} G.oX/./ ~ x t 4 9 3 3 ",
"3 3 3 3 3 yXlXlXiX_.2X{.6X<.#.3 3 3 3 O 6 h 3 3 3 3 3 3 o 3 3 4 y g ' %XS.W a # : Z { =.b.|..X.X|.[.b.9.&.M / /./.n 9 4 4 3 o 3 ",
"3 3 3 3 3 I.lXlXjXz.3.z.'.m.i.s % O O @.> t t 3 3 3 3 3 o t t 5 y / %X] k o % * M [ { F ;.v.{.|.b.].v.k.;.@ . Q OXW.j 9 7 6 3 3 ",
"3 3 3 3 3 g lXlXkX6X=.z.:.i.s.u.y.@.+.s.2 3 f 3 3 3 3 3 o 3 4 p i +XOX/ o o - * B 4.4.F G c.|.b.5.4.4.;.=.@ . s Y.=X^ y v ; 3 3 ",
"3 3 3 3 3 3 tXlXlXiX3._.n.s.s.s.p.p.s.s.o.3 f 3 3 3 3 3 o 3 4 y d *XQ.T o o * : K h.k.b.[.|.|.j.h.B > &.G   + % K.%X' y t a o 3 ",
"3 3 3 3 3 3 P.lXlXkX|.5Xn.d.C.M.a.s.a.a.X.3 d 3 3 3 3 3 o 3 4 d ~ A.Y.g o o : B P j.n.<X1X1X[.v.{.].c.j.G @ # X K.Y.l T 5 4 o o ",
"3 3 3 3 3 3 t jXlXlX7X5.<.Z.yXqXM.M.wX9XX.3 d 3 3 3 3 3 3 4 5 T ' k S.t o o : K { j.>XV.>X[.>Xk.1X1Xn.9.> # # + L.k T | y 4 d o ",
"3 3 3 3 3 3 3 $XlXlXjX.X<XM.wXrXs.9X;XwX- f 3 3 3 3 3 3 o d d x L.k G.t o 8 B L P l.l.[.1Xn.n.:.[.>Xx.-.@ : : X K.I I | y 4 o o ",
"3 3 3 3 3 3 3 I zXlXlXlXgXN.a.a...i.N.y.a t 3 3 3 3 3 3 o 3 9 h H.T A.d o % K K P n.n.x.[.[.k.b.[.>Xl.&.  M M X K.R Q / 9 4 3 3 ",
"3 3 3 3 3 3 3 3 8XlXlXlXkXrXN.s.i.s.y.C u 3 3 3 3 3 3 3 o 0 9 d S.n ' k o s L F P [.<X>.9.z.9.-.].|.k.1 B : : O S.Q T Q 4 4 3 3 ",
"3 3 3 3 3 3 3 3 ' zXlXlXjXjXiXrX0XP f 3 3 3 3 3 3 3 3 3 3 3 4 q x n ' ~ o M K B K k.1X1Xq.8.>.-.|.|.j.@ B : * t S.~ T r 5 4 o o ",
"3 3 3 3 3 3 3 3 7 uXlXdXR ( D.jXhXd o o 3 3 3 3 3 3 3 3 3 3 4 r i n ] Y.3 B > K P > c.2X2X>X].[.|.c.= : : B 8 T S.T k y 5 4 o o ",
"3 3 3 3 3 3 3 3 3 D.zXpXt 3 3 ;XuX0 3 3 3 3 3 3 3 3 3 3 3 3 4 T W.I ] U.! K > L { B F |.3X5X1Xb.j.1   B B K s Y.G.n m y 4 3 o 3 ",
"3 3 3 3 3 3 3 3 3 7 $X^.3 3 3 0 f 3 3 3 3 3 3 3 3 3 3 3 o 3 g =XU./ Y K.U.F B P { L 1 :.b.|.v.:.*.;.L F P g.P.K.S.T j q 4 3 o 3 ",
"3 3 3 3 3 3 3 3 3 3 3 3 3 3 3 3 o o 3 3 o o 3 3 3 3 3 3 o 3 L.Q.' / k S.U.} K 4.4.{ 1 k.k.:.:.k.c.c.h.h.(.~.Y.W.Q n i 5 4 o o 3 ",
"3 3 3 3 3 3 3 3 3 3 3 3 3 3 3 o o o o 3 o 4 o 3 o o 3 3 3 t %XK.Q m k k /.] ! g.g.{ G c.|.|.}.}.|.'. X X~.W /.' k m y 4 3 o o 3 ",
"3 3 3 3 3 3 3 3 3 o o o o 3 3 o - & o o o 7 o o o o 3 3 3 f =XH.n t c Q ' %XG.| g.4.G v.|.1X2X2X.X;X).P./ OXY./ T f 5 3 3 o o 3 ",
"3 3 3 3 3 3 3 3 3 o a 3 3 o o o 6 6 7 0 3 o o o t 3 3 3 3 i +XG.k i Q / | Y.OX/.H.|  .6.'.].'.(.(.U.S.U.OXOX' S.Q n 4 3 o 3 3 3 ",
"3 3 3 3 3 3 3 3 o o 6 o o 7 3 3 3 7 t t 3 3 3 3 3 o o o o t Q.] Q d / ' ( S.| /.=X@XW.U.U.U.U.U.U.OX&X@XL.' S./ ~ T f 0 o 3 3 3 ",
"3 3 3 3 3 3 3 o o o o 3 4 i T J.!.oXOXOX/.U.~ d 4 3 o o o 3 Y.oX| h / Y.S.S.] / W ' Y./.OX@X+XOXE.Y.K.K.K.G.' L.G.g o o o 3 3 3 ",
"3 3 3 3 3 3 3 o o 3 4 i ~ !.*X=X=X=X=X=X=X=X=XXX` j 4 3 3 o g *XL.' T ' Q./ ] /.=X/ S.XX/././././.W.Y.L.U.S./.Q.g 3 6 o o 3 3 3 ",
"3 3 3 3 3 3 o o 3 4 h S.+X=X=X=X=X=X=X=X=X=X=X=X#XL.n 4 3 3 o T !.OXE.G.K.oX#X/.-XU.] W.W.W.W.W.Y.U.Y.W.OX@X/ d o o ; 3 o 3 3 3 ",
"3 3 3 3 3 o o 3 4 k | OX%X=XOX/././././././.oX=X*X@XG.T 4 4 3 3 T oX=X@XOX%X/.R ' S.Q.XX/./././.OX#X@XY.~ 7 3 3 o o 3 o o 3 3 3 ",
"3 3 3 3 o o 3 t h ' S.J.S.E./.@X@X#X@X@X#X@XOXW.G.S.G.] n 4 3 o o 6 g g k d 3 n 4 t d h n x x x g u 0 3 o 7 o o o o o 3 o o 3 3 ",
"3 3 3 o 3 3 4 u ' ' / U.+X%X!./.K.D.P.P.J.!.Q.@X@XW.' ` | j 4 3 o o 3 7 t o o 6 o 3 3 3 3 3 4 t 3 3 % o o o o 3 3 3 3 3 3 3 3 3 ",
"3 3 3 o o s 9 n ' ] OX%X!.K.I.7.z.n.>X,X{.R.T.H.W.+X+XS.' ~ 9 4 3 3 o o 3 o o o o o 7 3 3 3 3 6 3 3 O 3 o o 3 o 3 3 3 3 3 3 3 3 ",
"3 3 3 o 3 a 5 / S./.Q.| } 7.9.l.B.V.>X2X,X,X:X`.T.| E./.G.' u f 3 0 o 3 3 3 3 3 o o 0 o o o 3 3 o 6 t d d u d 0 3 7 n b d 3 3 3 ",
"3 3 o 3 4 4 r / +XK.W ! 4.9.l.l.V.>X,X,X,X2X,X:X].} n S.@XS.d 9 4 3 o o 3 3 3 3 3 3 3 3 3 3 3 o 0 f 3 o o o 3 t [ (.Q U I.l o 3 ",
"3 3 o f 5 w m oXU.b 7 ! 2.5.P F J 3.x.w.3.J _ 6._.} 7 g S.+X^ y 4 e o o 3 3 3 3 3 3 3 3 3 3 3 0 f O O 3 3 3 3 3 f E 3 3 7 ^.3 3 ",
"3 3 o 3 9 p K.#XK.7 8 Z 2.=.=.=.S , -.>.S S 2.3.7._ 7 o ' OX/.u s < O o 3 3 3 3 3 3 3 3 3 3 3 g o o.O.% % 3 3 3 3 d 3 3 3 ) l 3 ",
"3 o 3 4 5 t S./.S.3 8 Z 5.=.G A > > >.q.S N J 2.5.[ 6 o ~ Q.Q.i 5 a o o 3 3 3 3 3 3 3 3 3 3 3 d O i.s.u.y.+., , o.s d 3 3 ! l 3 ",
"3 o o 4 r / n J.~ o 6 Z 5.%.S A D #.<.r.,.G J %.j.[ 7 o k L.Y / i 4 3 o 3 3 3 3 3 3 3 3 3 3 f 4 < a.a.p.p.s.s.s.i.s t 3 3 Q n 3 ",
"3 o o 4 i ` n W T o C H j.,.>.-.,.*.r.B.q.:XB.>Xn.6.v o g ' l ` h 4 0 3 3 3 3 3 3 3 3 3 3 3 0 t f.qX0Xs.a.a.a.s.@.0 d 3 3 l ! 3 ",
"3 o o x i S.n ` T o %.=.9.l.B.B.,.>.r.B.B.q.:X,X>X7.1.o g S.l J.j 5 3 o 3 3 3 3 3 3 3 3 3 3 3 g m.6XrXs.9X6X0Xs., t 0 3 3 t I.3 ",
"3 o o 4 u / T / ~ o %.&.,.l.,.$.#.; 2 D ; 8.$.l.V.0.H o x ' Y ` d 4 3 3 3 3 3 3 3 3 3 3 3 3 3 d +.M.i.t.0XyXfXi.s g 3 3 3 3 I.7 ",
"3 o o 9 5 n R Q ] 3 C *.,.-., D ; # = - v %.F G l.`.a o ~ / T T 9 4 3 3 3 3 3 3 3 3 3 3 3 3 3 3 C i.t.y.s.M.M.O.d 7 3 3 3 3 g U ",
"3 o o 4 5 y h / J.0 8 -.:.#.* - = = ; - - ; - N 9._.3 o S.' k y 5 4 3 3 3 3 3 3 3 3 3 3 3 3 d  ..XwXC.M.p.M.Z.7.3.H 3 3 3 3 0 ' ",
"3 o o 4 9 m W T L.n o F &.*., = , 9.'.].z.A %.=.9.V o f U./ T y 9 4 3 3 3 3 3 3 3 3 3 3 3 } qXeXgXgXeXeXrXeXiXz.7.7.3 3 3 3 I V ",
"3 o o 3 ~ @X/ R G.K.7 o v *.-.*.$.>.q.`.0.q.x.8.2.o o ] H.~ W y 5 3 o 3 3 3 3 3 3 3 3 3 3 qXeXaXlXlXsXgXiXjXlX7X{.7.3 3 3 7 ^.3 ",
"3 3 o d Q.W./ n ' U./ 3 6 &.*.*.$.#.D %.8.w.x.9.V o n U.S.n T 5 4 3 o 3 3 3 3 3 3 3 3 3 3 0 T.kXlXgXsXdXlXlXlX5X3.2.7 3 E ~.t 3 ",
"3 3 o ~ /.| Y ~ f W.S.d o F &.-.>.>.>.8.w.x._.2.3 t / !.k T x 4 4 o o 3 3 3 3 3 3 3 3 3 3 ) kXlXlXsXiXkXlXlXlX2X3.7.I.P.n 3 3 3 ",
"3 3 o S.OX' r k n ' OX` g F &.#.-.>.0.w.w.0.5.P g Q oXS.I x y 4 3 o o 3 3 3 3 3 3 3 3 3 ) kXlXlXgXjXgXsXdXjXlX7X2X_.3 3 3 3 3 3 ",
"3 3 o S.!./ 9 n ~ ] U.OXU.| [ H A S D G J [ _ | K.oX!.' / T r 3 o 3 3 3 3 3 3 3 3 3 3 R kXlXlXlXsXlXlXlXlXlXdX7.2.C 3 3 3 3 3 3 ",
"3 3 o W U./ 0 Q / ' | S.oX@X/.L.P.P.P.K.L.K.Q.+XOXL.| ] / ~ t f o 3 3 3 3 3 3 3 3 3 l jXlXlXlXdXkXlXlXlXlXlX3X<.2 & 3 3 3 3 3 3 ",
"3 3 o k @XG.m Y G.S.| S./ / K.W.XXOX+X+XOXQ./.L.K.G.S.] G.~ 3 3 o 3 3 3 3 3 3 3 3 7 8XgXlXkXhXdXlXlXlXlXlXsXe.y.u.p.O.% 3 3 3 3 ",
"3 3 o 3 W./.] T / Y.' ( K.OX/ A./././././.W.K.Y.U.G.K./.` 0 o o o 3 3 3 3 3 3 3 3 ( gXiX8XR l uXlXlXlXlXhXQ 3 3 O , y.u.+.2 3 3 ",
"3 3 o o f Y.!.E.G.S.W.+X/.=XE.S.U.U.U.U.Y.Y.W.W.Y.OXQ.T 7 o & O o 3 3 3 3 3 3 3 3 f ).} 0 3 6 ^.lXlXlXkX} 3 3 3 3 3 3 - ; & 3 3 ",
"3 3 3 o o d U.%X%X/.=XOX/ ] J.Q.OXOXoXXXOX@X+X/.K.n 0 3 o o o o o 3 3 3 3 3 3 3 3 3 3 3 3 3 ^.kXlXlXhX) 3 3 3 3 3 3 3 3 3 3 3 3 ",
"3 3 3 3 3 o 6 f n n h 0 d 0 t g x m m m n h u 0 3 3 3 o 3 3 3 3 3 3 3 3 3 3 3 3 3 o 3 3 3 l iXiXgX8Xl 3 3 3 3 3 3 3 3 3 3 3 3 3 ",
"3 3 3 3 3 o o o o t o o 6 3 o 3 3 3 3 r 0 3 3 % o o o 3 3 3 3 3 3 3 3 3 3 3 3 3 3 o 3 3 3 f ;X).E 3 3 3 3 3 3 3 3 3 3 3 3 3 3 3 ",
"3 3 3 3 3 3 3 3 o o o o o o o 0 3 3 3 3 3 3 o O o o 3 3 3 3 3 3 3 3 3 3 3 3 3 3 3 3 3 3 3 3 3 3 3 3 3 3 3 3 3 3 3 3 3 3 3 3 3 3 ",
"3 3 3 3 3 3 3 3 3 3 3 3 3 3 o 6 3 o o o o o o o o o 3 3 3 3 3 3 3 3 3 3 3 3 3 3 3 3 3 3 3 3 3 3 3 3 3 3 3 3 3 3 3 3 3 3 3 3 3 3 "
};
