/* XPM */
static char *_f74d90a717f4f4efc46f5200a2f65cd6wmdbnsVwJW5HBf8[] = {
/* columns rows colors chars-per-pixel */
"64 64 154 2 ",
"   c #000000",
".  c #0C0C0C",
"X  c #101010",
"o  c #3D0A0A",
"O  c #2C1F1F",
"+  c gray14",
"@  c #2E2626",
"#  c #2D2C2C",
"$  c #312626",
"%  c #342A2A",
"&  c #392C2C",
"*  c #323232",
"=  c #3D3434",
"-  c #3F3F3F",
";  c #450505",
":  c #4C0505",
">  c #4B0F0F",
",  c #530505",
"<  c #5C0404",
"1  c #530E0E",
"2  c #5B0C0C",
"3  c #571010",
"4  c #630303",
"5  c #6C0000",
"6  c #6B0C0C",
"7  c #740000",
"8  c #7C0000",
"9  c #710C0C",
"0  c #7B0C0C",
"q  c #641111",
"w  c #731010",
"e  c #492F2F",
"r  c #453535",
"t  c #4B3333",
"y  c #4D3C3C",
"u  c #513636",
"i  c #553C3C",
"p  c #593E3E",
"a  c #752F2F",
"s  c #454444",
"d  c #4C4343",
"f  c #4A4A4A",
"g  c #544242",
"h  c #5C4343",
"j  c #534D4D",
"k  c #5F4848",
"l  c #595656",
"z  c #5A5A5A",
"x  c #614646",
"c  c #634A4A",
"v  c #694F4F",
"b  c #7C4F4F",
"n  c #695050",
"m  c #715D5D",
"M  c #656565",
"N  c #6C6868",
"B  c #737373",
"V  c #7C7C7C",
"C  c #840000",
"Z  c #8C0000",
"A  c #850D0D",
"S  c #8B0D0D",
"D  c #940000",
"F  c #9B0000",
"G  c #920C0C",
"H  c #9B0B0B",
"J  c #861111",
"K  c #8D1010",
"L  c #931010",
"P  c #9B1010",
"I  c #A30101",
"U  c #AC0101",
"Y  c #A50909",
"T  c #AA0909",
"R  c #B50101",
"E  c #BB0404",
"W  c #B40909",
"Q  c #BC0909",
"!  c #A21515",
"~  c #AD1313",
"^  c #AC1818",
"/  c #BE1212",
"(  c #862020",
")  c #8D2929",
"_  c #9D2A2A",
"`  c #9E3B3B",
"'  c #A92929",
"]  c firebrick",
"[  c #B42929",
"{  c #A73030",
"}  c #B83333",
"|  c #C20000",
" . c #CA0505",
".. c #C10A0A",
"X. c #C80A0A",
"o. c #CD0909",
"O. c #D10909",
"+. c #C51313",
"@. c #C32929",
"#. c #D73333",
"$. c #974B4B",
"%. c #9A4B4B",
"&. c #9E4B4B",
"*. c #965959",
"=. c #A14B4B",
"-. c #A54B4B",
";. c #AA4B4B",
":. c #AE4B4B",
">. c #B14242",
",. c #B14B4B",
"<. c #B64B4B",
"1. c #BA4B4B",
"2. c #A05757",
"3. c #9E6E6E",
"4. c #887777",
"5. c #8F7E7E",
"6. c #A96868",
"7. c #C84B4B",
"8. c #C15252",
"9. c #C85353",
"0. c #C55858",
"q. c #D06A6A",
"w. c #8C8A8A",
"e. c #969696",
"r. c #9B9B9B",
"t. c #A6A6A6",
"y. c #B1AEAE",
"u. c #B4B4B4",
"i. c #BBBBBB",
"p. c #C68686",
"a. c #D38E8E",
"s. c #C69595",
"d. c #CBACAC",
"f. c #C5B7B7",
"g. c #CCB5B5",
"h. c #D4B4B4",
"j. c #DAB5B5",
"k. c #D6BEBE",
"l. c gray76",
"z. c #DDD4D4",
"x. c #DDDDDD",
"c. c #E9CACA",
"v. c #EEDADA",
"b. c #E6E6E6",
"n. c #EDE5E5",
"m. c #EEEDED",
"M. c #F3E4E4",
"N. c #F3EDED",
"B. c #F9EEEE",
"V. c #F3F2F2",
"C. c #F5F2F2",
"Z. c #FAF1F1",
"A. c #FEFDFD",
"S. c white",
/* pixels */
"- - - - - - - - - - - - - - - - - - - - - - - - - - - - - - - - - - - - - - - - - - - - - - - - - - - = = - - - - - - - - - - = ",
"f u h p i i i p h p i i i s s f i u i i i i i i p h x x x x h p i p i i i s s d h x x x x x x p p i i t t t i i h h i i i i y - ",
"u ..O...Q Q Q Q ..Q Q W S y f c +. .Q Q Q Q Q Q Q Q Q Q Q Q Q Q Q Q ..W K y - h +.O.O.O.o.o.o.o...X.Q Q Q Q Q W W W W T T Y K y ",
"p O. .R R | F U E I R I 5 & s x O.| F U F U F R D U I R I U D U D R E I 7 & s u Q R | R R R R R D R D R R R F U I D R I R I 7 & ",
"p Q I Z F D F F Z D D 7 < & s c ..R D D F Z 8 F F C D I F C D F 8 F D 7 < & s h Q I I C 8 F Z C C F C D I I Z F Z Z F 7 F 8 < $ ",
"p W D F F C D F D C D 4 ; % s c Q F U I D D 8 F Z D 8 F C C C D 8 Z C 5 , & s p W C D 7 C D 7 D 8 D Z F Z F 8 F D C F 8 F 7 : $ ",
"p W F Z Z Z Z F 8 S >.$.b N V 5.9.7.<.1.:.:.,.1.-.;.=.<.;.=.:.;.-.-.,.%.b N B 4.8.-.<.-.<.:.&.<.&.-.<.1.` H Z F F C D 7 D 8 : @ ",
"i T Z D D 8 D D ) v.S.S.S.S.S.S.S.S.S.S.S.S.S.S.S.S.S.S.S.S.S.S.S.S.S.S.S.S.S.S.S.S.S.S.S.S.S.S.S.S.S.S.S.c.( D C C D C D 7 ; @ ",
"i Y D 8 8 4 5 7 k.S.S.S.S.S.S.S.S.S.S.S.S.S.S.S.S.S.S.S.S.S.S.S.S.S.S.S.S.S.S.S.S.S.S.S.S.S.S.S.S.S.S.S.S.S.d.8 4 < 7 8 7 7 ; @ ",
"d w 4 < < ; ; > C.C.S.S.S.S.S.S.S.S.S.S.S.S.S.S.S.S.S.S.S.S.S.S.S.S.S.S.S.S.S.S.S.S.S.S.S.S.S.S.S.S.S.S.S.S.n.2 , , , , ; ; o @ ",
"f y & & & % % = S.C.S.S.S.S.S.S.S.S.S.S.S.S.S.S.S.S.S.S.S.S.S.S.S.S.S.S.S.S.S.S.S.S.S.S.S.S.S.S.S.S.S.S.S.S.m.& @ % & & % % % # ",
"x u t e t i i h S.C.S.S.S.S.S.S.S.S.S.S.S.S.S.S.S.S.S.S.S.S.S.S.S.S.S.S.S.S.S.S.S.S.S.S.S.S.S.S.S.S.S.S.S.S.m.f p u h i i i h t ",
"o.Q W Q T Y T ~ S.B.S.S.S.S.S.S.S.S.S.S.S.S.S.S.S.S.S.S.S.S.S.S.S.S.S.S.S.S.S.S.S.S.S.S.S.S.S.S.S.S.S.S.S.S.m.v +.o.Q Q Q Q Q Q ",
"U F D U F Z I G S.B.S.S.S.S.S.S.S.S.S.S.S.S.S.S.S.S.S.S.S.S.S.S.S.S.S.S.S.S.S.S.S.S.S.S.S.S.S.S.S.S.S.S.S.S.m.x o.| D U F I F U ",
"Z F D F C C Z 0 S.B.S.S.S.S.S.S.S.S.S.S.S.S.S.S.S.S.S.S.S.S.S.S.S.S.S.S.S.S.S.S.S.S.S.S.S.S.S.S.S.S.S.S.S.S.m.n Q U Z F Z C F F ",
"8 F F D Z 7 D A S.B.S.S.S.S.S.S.S.S.S.S.S.S.S.S.S.S.S.S.S.S.S.S.r.# S.S.S.S.S.S.S.S.S.S.S.S.S.S.S.S.S.S.S.S.m.c W D F I F Z F C ",
"D Z Z F Z 8 C S S.B.S.S.S.S.S.S.S.S.S.S.S.S.S.S.S.S.S.S.S.S.S.t.  s S.S.S.S.S.S.S.S.S.S.S.S.S.S.S.S.S.S.S.S.m.c W I Z F C F D C ",
"8 D 7 D 7 C 8 G S.B.S.S.S.S.S.S.S.S.S.S.S.S.S.S.S.S.S.S.S.S.S.- @ x.S.S.S.S.S.S.S.S.S.S.S.S.S.S.S.S.S.S.S.S.m.c Y Z F D 5 D C C ",
"7 D 5 5 < 7 7 S S.B.S.S.S.S.S.S.S.S.S.S.S.S.S.S.S.S.S.l.z l r.t.t.N f r.S.S.S.S.S.S.S.S.S.S.S.S.S.S.S.S.S.S.m.v H D 8 7 < 7 C 7 ",
"; , : : : : : 3 S.N.S.S.S.S.S.S.S.S.S.S.S.S.S.S.S.S.t..       X         V S.S.S.S.S.S.S.S.S.S.S.S.S.S.S.S.S.m.g S 4 : , ; ; < ; ",
"% & % + $ % % % S.C.S.S.S.S.S.S.S.S.S.S.S.S.S.S.S.m..                 + b.S.S.S.S.S.S.S.S.S.S.S.S.S.S.S.S.S.m.l i & % & % % & % ",
"j h i t t i h i S.C.S.S.S.S.S.S.S.S.S.S.S.S.S.S.S.u.                  w.S.S.S.S.S.S.S.S.S.S.S.S.S.S.S.S.S.S.N.h h t t t h i y s ",
"c +.o.Q Q Q Q / S.B.S.S.S.S.S.S.S.S.S.S.S.S.S.S.S.r.                  r.S.S.S.S.S.S.S.S.S.S.S.S.S.S.S.S.S.S.M.^ T Y Y T Y Y J y ",
"x o.I U R D U H S.B.S.S.S.S.S.S.S.S.S.S.S.S.S.S.S.u.                  l S.S.S.S.S.S.S.S.S.S.S.S.S.S.S.S.S.S.M.L F Z Z F 7 Z , % ",
"u  .U D I D F A S.B.S.S.S.S.S.S.S.S.S.S.S.S.S.S.S.b.                    e.S.S.S.S.S.S.S.S.S.S.S.S.S.S.S.S.S.M.J F D C F 8 5 ; @ ",
"i T C F F 8 C 9 S.B.S.S.S.S.S.S.S.S.S.S.S.S.S.S.S.S.s                   X m.S.S.S.S.S.S.S.S.S.S.S.S.S.S.S.S.M.K F F C D 5 5 ; @ ",
"g T F Z D 4 Z 9 S.B.S.S.S.S.S.S.S.S.S.S.S.S.S.S.S.S.i.                  V S.S.S.S.S.S.S.S.S.S.S.S.S.S.S.S.S.M.J D C C D 8 5 ; @ ",
"h T C 7 Z 4 8 A S.B.S.S.S.S.S.S.S.S.S.S.S.S.S.S.S.S.S.l               - C.S.S.S.S.S.S.S.S.S.S.S.S.S.S.S.S.S.Z.' C 5 < 7 C 5 ; @ ",
"g T F 5 7 5 5 6 S.B.S.S.S.S.S.S.S.S.S.S.S.S.S.S.S.S.S.m.M * B u.e.- l b.S.S.S.S.S.S.S.S.S.S.S.S.S.S.S.S.S.S.C._ 5 C < C 7 5 ; @ ",
"g K S 4 < < < q S.B.S.S.S.S.S.S.S.S.S.S.S.S.S.S.S.S.S.S.S.S.S.S.S.S.S.S.S.S.S.S.S.S.S.S.S.S.S.S.S.S.S.S.S.S.C.a , , ; < 5 , o @ ",
"f g r & & & & = S.C.S.S.S.S.S.S.S.S.S.S.S.S.S.S.S.S.S.S.S.S.S.S.S.S.S.S.S.S.S.S.S.S.S.S.S.S.S.S.S.S.S.S.S.S.C.j & % % & & & % # ",
"k h h h h i i i S.C.S.S.S.S.S.S.S.S.S.S.S.S.S.S.S.S.S.S.S.S.S.S.S.S.S.S.S.S.S.S.S.S.S.S.S.S.S.S.S.S.S.S.S.S.V.m h t h i i i g t ",
"T T T T T T T ~ S.B.S.S.S.S.S.S.S.S.S.S.S.S.S.S.S.S.S.S.S.S.S.S.S.S.S.S.S.S.S.S.S.S.S.S.S.S.S.S.S.S.S.S.S.S.Z.} Y T T T Y T Y T ",
"I U I U I R U W S.S.S.S.S.S.S.S.S.S.S.S.S.S.S.S.S.S.S.S.S.S.S.S.S.S.S.S.S.S.S.S.S.S.S.S.S.S.S.S.S.S.S.S.S.S.M.! C F D F Z F C F ",
"F Z D F F I Z Y S.S.S.S.S.S.S.S.S.S.S.S.S.S.S.S.S.S.S.S.S.S.S.S.S.S.S.S.S.S.S.S.S.S.S.S.S.S.S.S.S.S.S.S.S.S.M.L C D 8 D C D Z 8 ",
"Z C D F Z F C H S.S.S.S.S.S.S.S.S.S.S.S.S.S.S.S.S.S.S.S.S.S.S.S.S.S.S.S.S.S.S.S.S.S.S.S.S.S.S.S.S.S.S.S.S.S.M.P C D Z F D C D 7 ",
"F Z C F D F D S S.S.S.S.S.S.S.S.S.S.S.S.S.S.S.S.S.S.S.S.S.S.S.S.S.S.S.S.S.S.S.S.S.S.S.S.S.S.S.S.S.S.S.S.S.S.M.L D Z D D Z 8 8 C ",
"F C C F C D Z G S.S.S.S.S.S.S.S.S.S.S.S.S.S.S.S.S.S.S.S.S.S.S.S.S.S.S.S.S.S.S.S.S.S.S.S.S.S.S.S.S.S.S.S.S.S.M.F 8 D Z F C Z D 8 ",
"7 5 8 Z 7 7 C 0 S.S.S.S.S.S.S.S.S.S.S.S.S.S.S.S.S.S.S.S.S.S.S.S.S.S.S.S.S.S.S.S.S.S.S.S.S.S.S.S.S.S.S.S.S.S.v.D 8 Z 8 Z 8 D D 7 ",
"; ; : , : : , 1 n.S.S.S.S.S.S.S.S.S.S.S.S.S.S.S.S.S.S.S.S.S.S.S.S.S.S.S.S.S.S.S.S.S.S.S.S.S.S.S.S.S.S.S.S.S.k.4 < 4 < < < < < ; ",
"% % & $ % % % & y.S.S.S.S.S.S.S.S.S.S.S.S.S.S.S.S.S.S.S.S.S.S.S.S.S.S.S.S.S.S.S.S.S.S.S.S.S.S.S.S.S.S.S.S.S.w.O @ & & & & & & % ",
"f p h t i t t i x f.m.N.N.N.N.N.N.N.N.N.N.N.N.N.N.N.N.S.S.S.S.S.S.S.S.S.N.N.N.N.N.N.N.N.N.N.N.N.N.N.N.N.N.z.c t i i h i h t g - ",
"i / ..W Q Q W Q Q Y ] [ [ [ [ [ [ [ [ [ [ [ [ [ [ [ 0.S.S.S.S.S.S.S.S.S.#.@.@.@.@.@.@.@.@.[ [ [ [ [ [ [ [ ~ Y Y T Y T Y T Y J y ",
"x ..U D D F 8 I I Z F I Z F 8 D F 8 F Z F D F 8 F 8 a.S.S.S.S.S.S.S.S.S.q.I 8 F 8 D 7 F C F 8 F Z 7 D Z C F Z Z F Z D C Z D , % ",
"h Q I 7 D C 7 D Z D C F 7 C 5 D Z 7 D 5 C D Z 5 D A M.S.S.S.S.S.S.S.S.S.c.F 7 8 7 8 4 8 5 Z 8 D 7 Z 8 Z 8 C 8 D Z C D D 7 C ; @ ",
"i Q D 7 D 7 8 8 7 D 8 F C C C D 8 C Z 8 5 C Z 5 Z 2.S.S.S.S.S.S.S.S.S.S.S.{ 7 5 C D 7 5 Z C 5 Z Z 7 Z 8 8 D 8 D Z D 8 C 7 Z : @ ",
"u Q I C F C 7 D C C Z F C D 5 Z Z 7 D 5 C D 7 Z D j.S.S.S.S.S.S.S.S.S.S.S.s.Z C 7 D 5 Z 8 Z 8 8 5 8 7 D C Z Z Z D C 8 D C Z : @ ",
"h Q I 7 Z D 7 D 8 D 8 D 8 D 8 D 7 5 Z 5 8 C D C _ C.S.S.S.S.S.S.S.S.S.S.S.C.0 D 7 8 4 Z 7 Z 5 C 5 Z 7 C 8 D 8 C D C Z Z 7 7 ; @ ",
"t T F 7 Z 7 8 8 C Z 8 D C C C D C 5 8 7 4 5 Z 4 p.S.S.S.S.S.S.S.S.S.S.S.S.S.6.C 5 Z 4 8 Z 8 4 C 7 8 5 Z 7 Z 7 Z C C 8 Z 5 C ; @ ",
"g K 5 < 4 < 4 < 4 4 < , , , , , : : : : : : 3.g.C.S.S.S.S.S.S.S.S.S.S.S.S.S.n.h.*.4 < < 4 < , < , , : , : , : , : : : , : : o @ ",
"- - - - - - - - - - - - - - - - - - - - - - u.C.C.C.C.C.C.C.C.C.C.C.C.C.C.C.C.m.r.- - - - - - - - - - - - - - - - - - - - - - - ",
"s - - - - - - - - - - - - - - - - - - - - - - f f f f f f f f f f f f f f f f - - - - - - - - - - - - - - - - - - - - - - - - - ",
"u - - - - - - - - - - - - - - - - - - - - - - - - - - - - - - - - - - - - - - - - - - - - - - - - - - - - - - - - - - - - - - - ",
"t - - - - - - - - - - - - - - - - - - - - - - - - - - - - - - - - - - - - - - - - - - - - - - - - - - - - - - - - - - - - - - - ",
"t - - - - - - - - - - - - - - - - - - - - - - - - - - - - - - - - - - - - - - - - - - - - - - - - - - - - - - - - - - - - - - - ",
"t - - - - - - - - - - - - - - - - - - - - - - - - - - - - - - - - - - - - - - - - - - - - - - - - - - - - - - - - - - - - - - - ",
"t - - - - - - - - - - - - - - - - - - - - - - - - - - - - - - - - - - - - - - - - - - - - - - - - - - - - - - - - - - - - - - - ",
"r - - - - - - - - - - - - - - - - - - - - - - - - - - - - - - - - - - - - - - - - - - - - - - - - - - - - - - - - - - - - - - - ",
"r - - - - - - - - - - - - - - - - - - - - - - - - - - - - - - - - - - - - - - - - - - - - - - - - - - - - - - - - - - - - - - - ",
"r - - - - - - - - - - - - - - - - - - - - - - - - - - - - - - - - - - - - - - - - - - - - - - - - - - - - - - - - - - - - - - - ",
"r - - - - - - - - - - - - - - - - - - - - - - - - - - - - - - - - - - - - - - - - - - - - - - - - - - - - - - - - - - - - - - - ",
"- - - - - - - - - - - - - - - - - - - - - - - - - - - - - - - - - - - - - - - - - - - - - - - - - - - - - - - - - - - - - - - - ",
"- - - - - - - - - - - - - - - - - - - - - - - - - - - - - - - - - - - - - - - - - - - - - - - - - - - - - - - - - - - - - - - - ",
"s - - - - - - - - - - - - - - - - - - - - - - - - - - - - - - - - - - - - - - - - - - - - - - - - - - - - - - - - - - - - - - - "
};
