/* XPM */
static char *_18a817c6deb4d2ae391cdfc08c1025c4JUtmuXFTYpTV9xV[] = {
/* columns rows colors chars-per-pixel */
"64 64 158 2 ",
"   c #000000",
".  c #0E0E0E",
"X  c #140F0F",
"o  c #121111",
"O  c #3D0A0A",
"+  c #2C1F1F",
"@  c #252424",
"#  c #2E2525",
"$  c #2C2B2B",
"%  c #312626",
"&  c #332A2A",
"*  c #3A2C2C",
"=  c #333131",
"-  c #3A3737",
";  c #3E3E3E",
":  c #450505",
">  c #4C0505",
",  c #440909",
"<  c #530505",
"1  c #5C0404",
"2  c #630202",
"3  c #6C0000",
"4  c #620808",
"5  c #740000",
"6  c #7C0000",
"7  c #731010",
"8  c #452D2D",
"9  c #4C2D2D",
"0  c #512E2E",
"q  c #453535",
"w  c #4B3333",
"e  c #413E3E",
"r  c #4D3C3C",
"t  c #513636",
"y  c #553C3C",
"u  c #593E3E",
"i  c #772626",
"p  c #454444",
"a  c #4C4343",
"s  c #4A4A4A",
"d  c #544141",
"f  c #5C4343",
"g  c #514D4D",
"h  c #5F4848",
"j  c #535353",
"k  c #5C5C5C",
"l  c #614646",
"z  c #634949",
"x  c #7C4F4F",
"c  c #665C5C",
"v  c #6E5959",
"b  c #646464",
"n  c #6C6969",
"m  c #7A6363",
"M  c #776F6F",
"N  c #727272",
"B  c #7E7E7E",
"V  c #840000",
"C  c #8C0000",
"Z  c #8A0D0D",
"A  c #940000",
"S  c #9B0000",
"D  c #9F0A0A",
"F  c #871111",
"G  c #8C1010",
"H  c #841818",
"J  c #A30000",
"K  c #AC0101",
"L  c #A50909",
"P  c #AA0909",
"I  c #B40101",
"U  c #BB0404",
"Y  c #B40909",
"T  c #BA0909",
"R  c #BD0909",
"E  c #BE0909",
"W  c #BF1010",
"Q  c #8D2727",
"!  c #932828",
"~  c #A82A2A",
"^  c #C10000",
"/  c #C50000",
"(  c #CA0505",
")  c #C10909",
"_  c #C20A0A",
"`  c #C80A0A",
"'  c #CD0909",
"]  c #D10909",
"[  c #C61313",
"{  c #8A4747",
"}  c #8E4B4B",
"|  c #9F4040",
" . c #954B4B",
".. c #934C4C",
"X. c #9B4B4B",
"o. c #9C4B4B",
"O. c #9E4E4E",
"+. c #875252",
"@. c #A24B4B",
"#. c #A44B4B",
"$. c #A34E4E",
"%. c #AC4E4E",
"&. c #B24444",
"*. c #B54E4E",
"=. c #BA4E4E",
"-. c #B35252",
";. c #BB5252",
":. c #BF5858",
">. c #877777",
",. c #897C7C",
"<. c #A47070",
"1. c #B57A7A",
"2. c #C75252",
"3. c #D57E7E",
"4. c #848484",
"5. c #8C8B8B",
"6. c #929292",
"7. c #9A9696",
"8. c #9D9B9B",
"9. c #AA8989",
"0. c #BC8686",
"q. c #B18888",
"w. c #A29797",
"e. c #A4A4A4",
"r. c #ACA0A0",
"t. c #A8A8A8",
"y. c #B1A4A4",
"u. c #B6B6B6",
"i. c #BAB6B6",
"p. c #BCBCBC",
"a. c #C48686",
"s. c #CC8686",
"d. c #D68686",
"f. c #DE8686",
"g. c #D48C8C",
"h. c #D88A8A",
"j. c #E08A8A",
"k. c #C4AAAA",
"l. c #CBA8A8",
"z. c #D3A1A1",
"x. c #DBA7A7",
"c. c #D6A8A8",
"v. c #DBA9A9",
"b. c #C4BCBC",
"n. c #DBB6B6",
"m. c #E3ACAC",
"M. c #C2C2C2",
"N. c #CACACA",
"B. c #DEDEDE",
"V. c #EBD6D6",
"C. c #E2E2E2",
"Z. c #ECECEC",
"A. c #F7EAEA",
"S. c #FAEEEE",
"D. c #F6F6F6",
"F. c #FAF3F3",
"G. c gray99",
"H. c white",
/* pixels */
"; ; ; ; ; ; ; ; ; ; ; ; ; ; ; ; ; ; ; ; ; ; ; ; ; ; ; ; ; ; ; ; ; ; ; ; ; ; ; ; ; ; ; ; ; ; ; ; ; ; ; - - ; ; ; ; ; ; ; ; ; ; - ",
"s t f u y y y u h u y y y p p s y t y y y y y y u h l l l l h u y y y y y p p a l l l l l l l u u u y w w w y y h h y y y y r - ",
"t _ ] _ R R T R _ T R Y Z r s z [ ( R R T R T R T R R R R R T R T R _ Y G r ; f [ ] ] ] ' ' ' ' _ ` T R R R T Y Y Y Y P P L Z r ",
"u ] / I I ^ S K U J I J 3 * p z ] ^ S K S K S I A K J I J K A K A I U J 5 * p t R I ^ I I I I I A I A I I I S K J A I J I S 5 * ",
"u R J C S A S S C A C 5 1 * p z _ I A A S C 6 S S V A J S V A S 6 S A 5 1 * p h T J J V 6 S C V V S V A J J C S C C S 5 S 6 1 % ",
"u Y A S S V A S A V A 2 : & p z T S K J A A 6 S C A 6 S 6 V V A 6 C V 3 < * p u Y V A 5 V A 5 A 6 A C S C S 6 S A V S 6 S 5 > % ",
"u Y S C C C C S 6 C A 3 : & p h Y I A S C C A S 6 V 6 S V 6 C V V 6 A 3 > & ; y L V S V A C 5 A 5 6 A S V S C S S V A 5 A 6 > # ",
"y P C A A 6 A A 5 C 6 1 : & p d P I C A 6 A 6 A 6 C 5 C V 5 V A 5 C V 3 < & ; y L A A 5 V A 6 V 5 6 V S V A 5 A V V A V A 5 : # ",
"y L A 6 6 2 3 5 1 3 Q ..x n N ,.-.*.@.X.} #.o.o.#.o.} o.#.X.@.X.} @.X. .x n N >.;.#.o...X.o.} @.} X. .#.i 3 1 6 2 1 5 6 5 5 : # ",
"a 7 4 1 1 : : : , 9.H.H.H.H.H.H.H.H.H.H.H.H.H.H.H.H.H.H.H.H.H.H.H.H.H.H.H.H.H.H.H.H.H.H.H.H.H.H.H.H.H.H.H.q.< < < < < < : : O # ",
"s r * * * & & & c H.N.B N b j j j j j j j j j j j j j j j j j j j j j j j j j N N N N N N N N N N N N N N.H.c @ # & * * & & & $ ",
"l t w 9 w y y y w.D.-                                                                                   j H.8.e u t f y y y f w ",
"' T T T P L P L h.F.0                                                                                   = H.e.f [ ' R R T R T R ",
"K S A K S C J C s.F.9                                                                                   @ H.e.y ( / A K S J S K ",
"C S A S V V C 5 s.F.8                                                                                   o H.t.h T K C S C V S S ",
"6 S S A C 5 A V a.F.9                                                                                   o H.e.u Y A S J S C S V ",
"A C C S C 6 V V a.F.9                                                                                   o H.e.y Y J C S V S A V ",
"6 A 5 A 5 V 6 C 0.F.8                                                                                   o H.e.y L C S A 3 A V V ",
"5 A 3 3 1 5 5 V 0.F.8                                     6.u.6.. b u.4.5.u.5.                          o H.e.f D A 6 5 1 5 V 5 ",
": < > > > > > > 9.F.*                                   t.H.C.@   4.N.o p.H.M.                          o H.e.r Z 4 > < : : 1 : ",
"& * & @ % & & @ 7.D.-                                 8.H.B.@     k o   M.H.M.                          o H.t.s y * & * & & * & ",
"g h y w w y f w y.D.-                               6.H.B.=           s D.H.j                           o H.y.y f w w w f y r p ",
"z [ ' R R T R T j.F.0                             6.H.C.$           p H.D.j                             X H.h.L P L L P L L F r ",
"z ' J K I A K A d.F.0                           N H.D.N ; ; ; ; . ; Z.H.b                               @ H.s.C S C C S 5 C < & ",
"t ( K A J A S 6 a.F.9                           p.H.H.H.H.H.H.H.$ 4.H.Z.@   4.                          = H.s.6 S A V S 6 3 : # ",
"y P V S S 6 V 3 a.F.9                           e.B.B.B.B.Z.H.H.$ 4.H.Z.= u.M.                          = H.g.V S S V A 3 3 : # ",
"d P S C A 2 C 3 0.F.9                           . . . . . k H.H.$ s 5.4.k 4.n                           = H.x.6 A V V A 6 3 : # ",
"h P V 5 C 2 6 6 s.F.9                                     j H.H.$                                       = H.v.S V 3 1 5 V 3 : # ",
"d P S 3 5 3 3 2 0.F.8                                     ; M.M.@                                       = H.l.C 3 V 1 V 5 3 : # ",
"d Z Z 2 1 1 1 1 q.F.8                                                                                   = H.k.1 < < : 1 3 < O # ",
"s d q * * * * * 8.D.-                                                                                   = H.i.* * & & * * * & $ ",
"h h h h f y y w r.D.-                                                                                   = H.b.y f w f y y y d w ",
"P P P P P P P P h.F.9                                                                                   & H.m.P L P P P L P L P ",
"J K J K J I K I f.F.8                                                                                   = H.c.S V S A S C S V S ",
"S C A S S J C S s.F.c ; ; ; ; ; ; ; ; ; ; ; ; ; ; ; ; ; ; ; ; ; ; ; ; ; ; ; ; ; ; ; ; ; ; ; ; ; ; ; ; ; k H.c.C V A 6 A V A C 6 ",
"C V A S C S V A s.H.H.D.D.D.D.D.D.D.D.D.D.D.D.D.D.D.D.D.D.D.D.D.D.D.D.D.D.D.D.D.D.D.D.D.D.D.D.D.D.D.D.D.H.H.z.A V A C S A V A 5 ",
"S C V S A S A V s.H.H.H.H.H.H.H.H.H.H.H.H.H.H.H.H.H.H.H.H.H.H.H.H.H.H.H.H.H.H.H.H.H.H.H.H.H.H.H.H.H.H.H.H.H.s.C A C A A C 6 6 V ",
"S V V S V A C C s.H.H.H.H.H.H.H.H.H.H.H.H.H.H.H.H.H.H.H.H.H.H.H.H.H.H.H.H.H.H.H.H.H.H.H.H.H.H.H.H.H.H.H.H.H.a.A 6 A C S V C A 6 ",
"5 3 6 C 5 5 V 5 0.H.H.H.H.H.H.H.H.H.H.H.H.H.H.H.H.H.H.H.H.H.H.H.H.H.H.H.H.H.H.H.H.H.H.H.H.H.H.H.H.H.H.H.H.H.a.A 6 C 6 C 6 A A 5 ",
": : > < > > < > 9.H.H.H.H.H.H.H.H.H.H.H.H.H.H.H.H.H.H.H.H.H.H.H.H.H.H.H.H.H.H.H.H.H.H.H.H.H.H.H.H.H.H.H.H.H.<.2 1 2 1 1 1 1 1 : ",
"& & * % & & & & 5.H.H.H.H.H.H.H.H.H.H.H.H.H.H.H.H.H.H.H.H.H.H.H.H.H.H.H.H.H.H.H.H.H.H.H.H.H.H.H.H.H.H.H.H.H.M + # * * * * * * & ",
"s u f w y w w y m H.H.H.H.H.H.H.H.H.H.H.H.H.H.H.H.H.H.H.H.H.H.H.H.H.H.H.H.H.H.H.H.H.H.H.H.H.H.H.H.H.H.H.H.H.v w y y f y f w d - ",
"y W R T T T T T T 3.S.H.H.H.H.H.H.H.H.H.H.H.H.H.H.H.H.H.H.H.H.H.H.H.H.H.H.H.H.H.H.H.H.H.H.H.H.H.H.H.H.H.H.m.L L P L P L P L F r ",
"l _ K A A S 6 J J C ~ =.%.*.$.*.=.$.=.%.=.*.*.$.*.$.:.A.H.H.H.H.H.H.H.S.2.=.$.*.$.*.O.*.$.*.O.=.%.O.%.*.| D C C S C A V C A < & ",
"f R J 5 A V 5 A C A V S 5 V 3 A C 5 A 3 V A C 3 A V ;.H.H.H.H.H.H.H.H.H.&.S 5 6 5 6 2 6 3 C 6 A 5 C 6 C 6 V 6 A C V A A 5 V : # ",
"y T A 5 A 5 6 6 5 A 6 S V V V A 6 V C 6 3 V C 3 C 3 n.H.H.H.H.H.H.H.H.H.v.A 5 3 V A 5 3 C V 3 C C 5 C 6 6 A 6 A C A 6 V 5 C > # ",
"t T J V S V 5 A V V C S V A 3 C C 5 A 3 V A 5 C A ! S.H.H.H.H.H.H.H.H.H.F.H C V 5 A 3 C 6 C 6 6 3 6 5 A V C C C A V 6 A V C > # ",
"f R J 5 C A 5 A 6 A 6 A 6 A 6 A 5 3 C 3 6 V A V V 1.H.H.H.H.H.H.H.H.H.H.H.1.5 A 5 6 2 C 5 C 3 V 3 C 5 V 6 A 6 V A V C C 5 5 : # ",
"w P S 5 C 5 6 6 V C 6 A V V V A V 3 6 5 2 3 C 2 Z V.H.H.H.H.H.H.H.H.H.H.H.V.5 6 3 C 2 6 C 6 2 V 5 6 3 C 5 C 5 C V V 6 C 3 V : # ",
"f G 3 1 2 1 2 1 2 2 1 < < < < < > > > > > > < > +.H.H.H.H.H.H.H.H.H.H.H.H.H.{ 4 1 2 1 1 2 1 < 1 < < > < > < > < > > > < > > O # ",
"; ; ; ; ; ; ; ; ; ; ; ; ; ; ; ; ; ; ; ; ; ; n M.Z.H.H.H.H.H.H.H.H.H.H.H.H.H.C.M.n ; ; ; ; ; ; ; ; ; ; ; ; ; ; ; ; ; ; ; ; ; ; ; ",
"p ; ; ; ; ; ; ; ; ; ; ; ; ; ; ; ; ; ; ; ; ; 4.D.D.D.D.D.D.D.D.D.D.D.D.D.D.D.D.D.4.; ; ; ; ; ; ; ; ; ; ; ; ; ; ; ; ; ; ; ; ; ; ; ",
"t ; ; ; ; ; ; ; ; ; ; ; ; ; ; ; ; ; ; ; ; ; ; s s s s s s s s s s s s s s s s ; ; ; ; ; ; ; ; ; ; ; ; ; ; ; ; ; ; ; ; ; ; ; ; ; ",
"w ; ; ; ; ; ; ; ; ; ; ; ; ; ; ; ; ; ; ; ; ; ; ; ; ; ; ; ; ; ; ; ; ; ; ; ; ; ; ; ; ; ; ; ; ; ; ; ; ; ; ; ; ; ; ; ; ; ; ; ; ; ; ; ",
"w ; ; ; ; ; ; ; ; ; ; ; ; ; ; ; ; ; ; ; ; ; ; ; ; ; ; ; ; ; ; ; ; ; ; ; ; ; ; ; ; ; ; ; ; ; ; ; ; ; ; ; ; ; ; ; ; ; ; ; ; ; ; ; ",
"w ; ; ; ; ; ; ; ; ; ; ; ; ; ; ; ; ; ; ; ; ; ; ; ; ; ; ; ; ; ; ; ; ; ; ; ; ; ; ; ; ; ; ; ; ; ; ; ; ; ; ; ; ; ; ; ; ; ; ; ; ; ; ; ",
"w ; ; ; ; ; ; ; ; ; ; ; ; ; ; ; ; ; ; ; ; ; ; ; ; ; ; ; ; ; ; ; ; ; ; ; ; ; ; ; ; ; ; ; ; ; ; ; ; ; ; ; ; ; ; ; ; ; ; ; ; ; ; ; ",
"q ; ; ; ; ; ; ; ; ; ; ; ; ; ; ; ; ; ; ; ; ; ; ; ; ; ; ; ; ; ; ; ; ; ; ; ; ; ; ; ; ; ; ; ; ; ; ; ; ; ; ; ; ; ; ; ; ; ; ; ; ; ; ; ",
"q ; ; ; ; ; ; ; ; ; ; ; ; ; ; ; ; ; ; ; ; ; ; ; ; ; ; ; ; ; ; ; ; ; ; ; ; ; ; ; ; ; ; ; ; ; ; ; ; ; ; ; ; ; ; ; ; ; ; ; ; ; ; ; ",
"q ; ; ; ; ; ; ; ; ; ; ; ; ; ; ; ; ; ; ; ; ; ; ; ; ; ; ; ; ; ; ; ; ; ; ; ; ; ; ; ; ; ; ; ; ; ; ; ; ; ; ; ; ; ; ; ; ; ; ; ; ; ; ; ",
"q ; ; ; ; ; ; ; ; ; ; ; ; ; ; ; ; ; ; ; ; ; ; ; ; ; ; ; ; ; ; ; ; ; ; ; ; ; ; ; ; ; ; ; ; ; ; ; ; ; ; ; ; ; ; ; ; ; ; ; ; ; ; ; ",
"- ; ; ; ; ; ; ; ; ; ; ; ; ; ; ; ; ; ; ; ; ; ; ; ; ; ; ; ; ; ; ; ; ; ; ; ; ; ; ; ; ; ; ; ; ; ; ; ; ; ; ; ; ; ; ; ; ; ; ; ; ; ; ; ",
"; ; ; ; ; ; ; ; ; ; ; ; ; ; ; ; ; ; ; ; ; ; ; ; ; ; ; ; ; ; ; ; ; ; ; ; ; ; ; ; ; ; ; ; ; ; ; ; ; ; ; ; ; ; ; ; ; ; ; ; ; ; ; ; ",
"p ; ; ; ; ; ; ; ; ; ; ; ; ; ; ; ; ; ; ; ; ; ; ; ; ; ; ; ; ; ; ; ; ; ; ; ; ; ; ; ; ; ; ; ; ; ; ; ; ; ; ; ; ; ; ; ; ; ; ; ; ; ; ; "
};
