/* XPM */
static char *_2bf1d9428c141c5e51c051675b07b68tspaKFadRpNxxa88[] = {
/* columns rows colors chars-per-pixel */
"64 64 229 2 ",
"   c #150E0E",
".  c #16120E",
"X  c #1B1311",
"o  c #1C1617",
"O  c #231D19",
"+  c #271E18",
"@  c #28231C",
"#  c #352619",
"$  c #1C1C2D",
"%  c #090F3D",
"&  c #0B1238",
"*  c #0A113F",
"=  c #151937",
"-  c #11153E",
";  c #2D2923",
":  c #312B25",
">  c #352D25",
",  c #36332C",
"<  c #39352A",
"1  c #2A273B",
"2  c #392B3D",
"3  c #3C3B32",
"4  c #3B383A",
"5  c #45382A",
"6  c #423D33",
"7  c #453838",
"8  c #593F3A",
"9  c #444236",
"0  c #44443B",
"q  c #494439",
"w  c #4A4B3E",
"e  c #544939",
"r  c #5E4C3C",
"t  c #674A34",
"y  c #69533B",
"u  c #77543C",
"i  c #0A1240",
"p  c #0D1846",
"a  c #0C1748",
"s  c #0E1B4A",
"d  c #111743",
"f  c #131A45",
"g  c #191F47",
"h  c #131D4A",
"j  c #0F1F50",
"k  c #111E50",
"l  c #211F40",
"z  c #16214C",
"x  c #1D254A",
"c  c #1B234C",
"v  c #122353",
"b  c #1A2955",
"n  c #152A5C",
"m  c #252747",
"M  c #322F45",
"N  c #333443",
"B  c #3A3C47",
"V  c #242C52",
"C  c #282E54",
"Z  c #242F5B",
"A  c #2B3256",
"S  c #2A345A",
"D  c #2D365B",
"F  c #30375B",
"G  c #323A5C",
"H  c #393F5F",
"J  c #172E62",
"K  c #183264",
"L  c #273461",
"P  c #353B61",
"I  c #333C62",
"U  c #473D49",
"Y  c #38415F",
"T  c #3B4363",
"R  c #3E4768",
"E  c #2B4372",
"W  c #4C4D42",
"Q  c #47464C",
"!  c #544E48",
"~  c #535344",
"^  c #5B5344",
"/  c #56544A",
"(  c #595749",
")  c #5D5A4C",
"_  c #4C4A55",
"`  c #5B5B55",
"'  c #655947",
"]  c #785B46",
"[  c #665B56",
"{  c #68604E",
"}  c #7C634C",
"|  c #656252",
" . c #6A6554",
".. c #6C6858",
"X. c #786957",
"o. c #726D5C",
"O. c #77705F",
"+. c #424A66",
"@. c #454B6A",
"#. c #434D6A",
"$. c #4A526D",
"%. c #4A546D",
"&. c #585C65",
"*. c #455375",
"=. c #4C5571",
"-. c #4E5873",
";. c #505773",
":. c #535B74",
">. c #585F77",
",. c #555E79",
"<. c #5C6268",
"1. c #5A6374",
"2. c #566179",
"3. c #5C647C",
"4. c #5E697C",
"5. c #666664",
"6. c #746C65",
"7. c #757263",
"8. c #7C7668",
"9. c #6C6D75",
"0. c #61667D",
"q. c #626B7E",
"w. c #726E72",
"e. c #757676",
"r. c #864F39",
"t. c #93643A",
"y. c #8B5E48",
"u. c #945C4C",
"i. c #A75850",
"p. c #82644D",
"a. c #8A684D",
"s. c #94704B",
"d. c #886C56",
"f. c #986A54",
"g. c #8E7356",
"h. c #83715E",
"j. c #8D735C",
"k. c #927256",
"l. c #97765A",
"z. c #9C7C5B",
"x. c #AB655A",
"c. c #A2795D",
"v. c #857263",
"b. c #887768",
"n. c #977C65",
"m. c #9B7C62",
"M. c #867E72",
"N. c #907C70",
"B. c #B46B62",
"V. c #A87A67",
"C. c #AB7569",
"Z. c #B5766B",
"A. c #9F815E",
"S. c #A0805D",
"D. c #9A8169",
"F. c #878172",
"G. c #998875",
"H. c #9E907E",
"J. c #A48266",
"K. c #A4846B",
"L. c #A7876A",
"P. c #AA856C",
"I. c #AA8B6F",
"U. c #B3886B",
"Y. c #A38C76",
"T. c #AB8C73",
"R. c #B28C75",
"E. c #B88975",
"W. c #A6927B",
"Q. c #AD937A",
"!. c #B3947B",
"~. c #B89478",
"^. c #BC947B",
"/. c #C2957B",
"(. c #5F6681",
"). c #5F6980",
"_. c #646C83",
"`. c #646C86",
"'. c #677185",
"]. c #6A7485",
"[. c #687489",
"{. c #6B748A",
"}. c #6E798C",
"|. c #737889",
" X c #727B8D",
".X c #747D91",
"XX c #79818D",
"oX c #768192",
"OX c #7A8394",
"+X c #7D8896",
"@X c #7C8699",
"#X c #7E8A99",
"$X c #908D84",
"%X c #808A96",
"&X c #828D9D",
"*X c #86919F",
"=X c #AB9783",
"-X c #B59786",
";X c #B69C84",
":X c #BB9C84",
">X c #BA9F89",
",X c #BFA084",
"<X c #BCA28C",
"1X c #BCA693",
"2X c #BEAA96",
"3X c #BCA999",
"4X c #868FA1",
"5X c #8691A2",
"6X c #8A95A3",
"7X c #8E99A6",
"8X c #8F9BA9",
"9X c #919AA6",
"0X c #929DAA",
"qX c #95A1AD",
"wX c #99A4AE",
"eX c #96A1B0",
"rX c #99A5B1",
"tX c #9AA5B2",
"yX c #9AA6B2",
"uX c #9DA9B3",
"iX c #C29C85",
"pX c #C29F89",
"aX c #C3A38C",
"sX c #C8A68D",
"dX c #C2A691",
"fX c #C4AA93",
"gX c #C5AD9A",
"hX c #CBB19D",
"jX c #CCB3A0",
/* pixels */
"i i i i i i i i i i i i i i i i i i i i i i i i i i i i * * i * i i i i * * * i i i i i i i i i i i i i i i i i i i i i i i i i ",
"i i i i i i i i i i i i i i i i i i i i i i i i i i * * % M i * * i i * c c i * i i i * i i i i i i i i i i i i i i i i i i i i ",
"i i i i i i i i i i i i i i i i i * * i * i i i i i * - 7 t.1 * i i i * z c i * i * * * * i i i i i i i i i i i i i i i i i i i ",
"i i i i i i i i i i i i i i i i * * * i i * i * * i * * * 8 i * * * * * * * * * * * * * * i i i i i i i i i i i i i i i i i i i ",
"i i i i i i i i i i i i i i i i * f 0.* i * * * * * * * * d i i h d * * * * * * * i 3.i i i i i i i i i i i i i i i i i i i i i ",
"i i i i i i i i i i i i i i i i * * f * * * * i i i i i i p p p #.D i i i i i i i * % * * i i i i i i i i i i i i i i i i i i i ",
"i i i i i i i i i i i i i i i i * * * * i i c c p p p i p z c c c z z i p i p i p * i i * * * * i i i i i i i i i i i i i i i i ",
"i i i i i i i i i i i i i i * * * * * * i i h p p A 2..X&X7X0X0XqX9X7X5X.X3.D h i p i i * * * * * * i i i i i i i i i i i i i i ",
"i i i i i i i i i i i i i * * * * i i p p h c =.&XuXrXrXrXrXrXrXrXrXrXrXrXrXuX5X=.c s p p * i * * * i i i i i i i i i i i i i i ",
"i i i i i i i i i i i i i * * i i i p i L -. X8XrXrXrXrXrXrXrXrXrXrXrXrXrXrXrXrX8XoX;.S * p i * * * * * i i i i i i i i i i i i ",
"i i i i i i i i i i i i i * i i i p i *._.+XqXrXrXrXrXrXrXrXrXrXrXrXrXrXrXrXrXrXrXrX#Xq.=.i p * i * * i i i i i i i i i i i i i ",
"i i i i i i i i i i i * * i p p s h ,.4.#XrXrXrXrXrXrXrXrXrXrXrXrXrXrXrXrXrXrXrXrXrXrX*Xq.3.h h i i i * i * * i i i i i i i i i ",
"i i i i i i i i i i * * i i p p c 4.4.#XrXrXrXrXrXrXrXwX9X6X4X&X&X4X6X8XwXuXrXrXrXrXrXrX&X4._.x p a a i h * * i i i i i i i i i ",
"i i i i i i i i i * * i i h p h _.4.}.rX8X9XrXuX5X_.3.`. X@X#X&X#X#XOX.X`.3._.&XuXrX9X7XrX}.4._.c a p i h * * i i i i i i i i i ",
"i i i i i i i * * * i i i R p 3.4.4.oX`.3.=.}.3..XqXuXrXrXrXrXrXrXrXwXrXrXuXqXoX3.}.-.3._.OX4.4.3.f s p i i * i * i i i i i i i ",
"i i i i i i i * h i i p p s =.q.4.-.3.).-.[.7XrX&XwXrXwX7X#X.X}.}. X#X7XrXrXwX&XrX7X].-.4.4.-.4.q.-.p p p i i * * i i i i i i i ",
"i i i i i i * * i i p a s S ].4.4.+.%. XqXrXrXrX9X#X3._..XoX}.}.}.}.oX.X_.3.@X9XrXrXrXqXoX=.R q.4.].D s a p i i * i i i i i i i ",
"i i i i i i * * * d p s p 3.4.4.:.;.9XwXrXrX7X{.3. X+X9.! [ N.Y.Y.G.b.6.9.OX X3.[.7XrXrXrXqX,.;.4.4.3.s p p a i * * * i * i i i ",
"i i i i i i * * m r c s V '.4.%.[.wXwXrX#X4.[.[.1.5. .d.a.Q.<X1X<X<X<X>X;XG.6.w. X[.(.@XrXrXrX}.%.4.'.C p v p p i h i * * i i i ",
"i i i i i i * p - U h n R q.%..XoX9X7X-.[.3.B Q 7.6.h.d.m.>X3X3X3X1X1X<X>X;XQ.K.d.! 0.[.-.6X9X.XoX%.q.#.v T z i p D i i * i i i ",
"i i i i i * i * p i v p -.%.[.rX9X}.-.].N 4 W [ 8.O.j.k.R.1X3X3X3X3X1X<X>X;X!.K.l.p.r 1 '.;.[.9XrX X%.:.a *.f p i i i i * i i i ",
"i i i i * * * p i v p v T 3.rXqX,.).&.; , 0 / 6.8.h.g.V.:X1X3X3X3X2X1X<X>X;X!.P.l.p.' +   Q q.;.9XrX_.T h p v p s i * * i i i i ",
"i i i i i V ,.i v i K F q.qXrX,._.N 5 : 3 0 ` 8.8.h.g.T.<XdX1X2X1X1X<X<X>X;X!.I.z.d.] >   X 1 q.,.rXeXq.H J p v p p * * * i i i ",
"i i i i * i i h * v a 2.#XrXoX#.x 1 6 : 6 W ) M.6.O.p.T.>X<X<X1XdX<X<X:X:X;X~.I.m.k.} 5 . X o x #..XrX&X4.p v i z 1 i * * i i i ",
"i i i i * * p i b b z 8X0XuX).-.* 4 6 , 0 / | F.8.X.] a.m.!.;X<X<X<X:X:X:X;XQ.K.J.l.p.5 . X o * $.4.rX0XqXc p C 8 t.M * * i i i ",
"i i i i * a i n f E C uXrX#X@XT - 7 3 3 W / 7.M.8.^ r d.D.T.Q.<X<X;XQ.T.Y.Q.T.K.K.m.} 5 . X O & F &XOXrXuXG J f _ u l * * i i i ",
"i i i * i * s * n i b 8XrX_.9Xx 1 q 3 0 ! ) M.F.b.r q ' j.Q.;X<X>X!.D.l.h.X.X.h.n.l.} 5 . X + & g 9X(.rX0XV p v - M * * * i i i ",
"i i i * * p * n i A R +.rX).&X* 1 q 3 w W  .G.G.n.g.k.m.K.;X>X1X:XJ.l.b.v.v.D.j.} d.] > o O @ = * @X_.rX%.R D i n i p * * * i i ",
"i i i * i * v i D [.-.f [.'.}.& M 9 9 ~ ( v.D.Y.J.R.!.>X<X<X<X<XQ.z.G.N./ q 5 ] a.} ] @ @ : ; = % `.}.[.g %.[.P p v * i * * i i ",
"i i i * * p i n R 4.3.+.V [.3.* M 6 w / ..v.K.I.R.iXaXaXdXaX<X<XT.T.;X=XD.j.} p.k.d.r O : , : = * ,..XV +.3.3.#.n i p P f * i i ",
"i i i * i * k i F ).=.C D .X,.* N 9 ~ | o.v.K.I.iXaXsXsXdXaX>X>XT.!.<X<X;X-X!.T.K.k.5 + , , : $ * -.+XA V $.q.Y i v i i * * i i ",
"i i i * * S 0.J A ]..XC +.}.2.* N 0 ( ..o.b.J.^.pXaXpXaXaX>X>X:XT.!.<XaXaX>X;XR.J.a.> @ 3 < , $ * -.oX+.A [. XG J i p * * * i i ",
"i i i * p % v * A _.}.A -._.`.* B w ) ..O.j.J./.iX/./.iX>X>XaXaXP.I.<XdXaX>X^.P.c.u # > 9 3 : $ & 3.[.-.F [._.A * v i i i i i i ",
"i i i * * p i n C ;.3.R :.;.oX- 0 ~  .o.o.j.U./.^.U.iXaX!.!.aXiXJ.V.!.aXaX:XE.V.f.8 O 3 w 9 , = & }.3.,.T 3.:.A n * p * * i i i ",
"i i i * i c b * c ;._.C :.#.*X= W | .. ...g.R.^.U.^.dXfX<X~.R.c.r.f.;X>XpX/.E.c.y.> @ W w 0 3 = * &X#.1.C 0.>.c i v * i * i i i ",
"i i i * * p i J i b [.G ;.@.6XM ^  .) ..' m.^.^.~.:XaXaXdXaXR.V.T.;X>X>XiX^.U.f.] @ , / w w , = c 7X+.:.F [.V i J i p * * i i i ",
"i i i * i * h i n a Z T %.>.}.%.'  .' | { K.:X^.:XV.r.f.x.Z.E.E.!.;X:X<XpX^.P.f.] : W w W 0 , = T oX:.%.T b p n i s * i * i i i ",
"i i i * * p * n * J p #.T _.3.oX|  .) | ' D.:X,XaXiXx.C.-X-XV.f.u.u.T.<X<X~.J.k.6 w ) 0 ~ 0 1 * [.3._.+.#.f J * n * p * * i i i ",
"i i i * i * s * n c R _.A 4._.6X` | ~ | | X.^.<XaXdXE.B.B.Z.C.C.u.r.R.2X<X!.K.} @ w ( 0 ~ 0 = c 7X_.4.F _.b p n i h * i i i i i ",
"i i i * * i * v F 7X[.].x _.].}.].^ ~  .o.' D.<X<XdXdX^.Z.B.B.i.i.Z.<X2X<X!.K.< : / 9 W W 4 - ,..X[._.x '.h n i v * i * * i i i ",
"i i i * * * p F 0XrX X3.3.;.]._.8XQ ~ ..o.' e Y.<XdXgXfXaX-XE.U.!.:X<X1X;XI.r O 0 ~ 9 ~ W 1 m 9X_.].,.2._.v i v i p * * i i i i ",
"i i i * * i d OXrX7X3.@.F C  XoX_.%X/ ..7...9 ' Q.<XgXhXhXgXfX1X<X<X<X;XT.y X : ( 9 W ( N d oX]. X XA A -.p n i v i i * i i i i ",
"i i i i * * -.[.qX].q.;.+.:.P oX.X.Xe.o.8.o.^ 6 } Q.fXhXjXjXgXdX<XQ.T.K.u # @ 9 ( 9 ' .._ 3.@X}.oXT ,.T %.n a s i i * * i i i i ",
"i i i i * i @X7Xq.q.[.F 3.;.* [.#X[._.&.8.O.| 5 y g.;XfXhXgXdX<X!.z.l.t.t t 5 ) e ^ o.8.<.q.[.&X}.* -.:.A a j i p * * i i i i i ",
"i i i i * f 7XrX+X:.H h 3.$.f A &X8X2.+.` o.O.e y k.z.~.,XaX:XI.z.s.s.s.g.h...o.^ ..7.&.#.-.8X&XD i =.3.h n a p i * i i i i i i ",
"i i i i i c qXrX].'.V v V C +.;.#.7XqX).#.<.o.' y z.J.z.z.c.z.s.s.A.K.I.G.G.H.8.7.6.&.#.3.eX8X#.,.T F C v p p i i * * i i i i i ",
"i i i i i c eXrX4._.z a H T ,.%.q.;.rXrXOX#.'.5.r D.T.Q.I.S.z.J.I.!.Q.Q.W.$X$Xw.1.'.#.oXwXrX,.4.%.3.T Y i s i i * * i i i i i i ",
"i i i i i c 0XqX4._.f k D #.%._._.%.5X0XOXqX3.2..Xq.w.M.H.=XW.=X=XW.W.H.e.9.q..X3.2.qX+X9X7X$._.`.%.#.G h i a * * i i i i i i i ",
"i i i i * f '. X1.3.b p +.$.,.$.[.].%.`.5XrXrX9X[.`.[.[.].[.|.%XXX|.[.[.[.[.`.[.9XrXrX6X[.%.].[.%.:.%.#.p I d i * i i i i i i i ",
"i i i i * i @X8X].3.-.i +.1.$._.;.:.OX3.3.`.0XrXrXrXqXOX#XOX X.X.X.XoX@XOX0XrXrXrX0X'.3.0.OX2.-._.$.,.$.i D d * * i i i i i i i ",
"i i i i * * ,.rX7X4.[.V A 4. X3._._.:..X X_.A =.oX9XqX&XrXrXrXrXrXrXrXrX&XqX9X@X0.,. X X.X,.q._.3. X4.D * i * * * i i i i i i i ",
"i i i i * * V qXrX}.4.'.c R q.0X[.3.].,.+.,._.3.P F =.[.[.}..X.X.X.X}.[.].`._.].@X+X[.`.].[.3.].0Xq.+.i i * * i i i i i i i i i ",
"i i i i i * * [.rX8Xq._.,.R H _.7X[.#.q.3..XqXqX X$.;.0XwX0X9X9X9X9X0XqXqX7X+X`.(.}.%XOX3.q.6XqX[.H i i i i * * * i i i i i i i ",
"i i i i i * * f 5XeX.X)._.q.].%.;.q.]. X&X.XrXrX*X_.,.:._.`.[.[.[.[.'._.3._..X0XqXoX3.0.5XuX0X3.V * i i 2 1 i * * i i i i i i i ",
"i i i i i i * * h _.%XrXqX#X X].[.5XqXrXrXOXrXrXoX%X_. X4X6X6X5X5X6X5X4X@X.X[.`.[.@X0XrXqX XH f g i * - 8 7 i i * i i i i i i i ",
"i i i i i i * * i c oXuXrXrXrX8XOXrXrXrXrX'.`.3.$.%X3.5X%XoXOXoXOXOXoX#X*X9XqXwXrXuX9X_.C p i i i * * * * i i i * i i i i i i i ",
"i i i i i i i * * * & R #XqXwX@X6XqX8X.XP i C 3.`.`.0X0XqXqXqXqXqXqXqXqX0X9X4X.X3.A d % i * * * * * * * * * * * * i i i i i i i ",
"i i i i i i i i i * * * * x D C G C f i * T d i i i h c C D I I P I D Z c c i i * i * * f i * i i i i i i i i i i i i i i i i i ",
"i i i i i i i i i * * * * * * c F * * * * F i i i i i p i p p i p p p i p i i * * * * * i i * i i i i i i i i i i i i i i i i i ",
"i i i i i i i i i i i i i * * i i * * * * * * * * * * i * * * * * * %.% i i i 1 2 * * * * * * i i i i i i i i i i i i i i i i i ",
"i i i i i i i i i i i i i i * i * * i i * i i * * * * i i i * i i i V % i i i 1 2 * i * * i i i i i i i i i i i i i i i i i i i ",
"i i i i i i i i i i i i i i i i i i i i i i i i * * T g i i i i i i i i i i i * i i i * i i i i i i i i i i i i i i i i i i i i ",
"i i i i i i i i i i i i i i i i i i i i i i i i * * * i i * * * * * * * * * * * * * * * * i i i i i i i i i i i i i i i i i i i ",
"i i i i i i i i i i i i i i i i i i i i i i i i * * * * i * i i i i i i i i * * * i i i i i i i i i i i i i i i i i i i i i i i "
};
